<svg width="68" height="67" viewBox="0 0 68 67" fill="none" xmlns="http://www.w3.org/2000/svg">
<path fill-rule="evenodd" clip-rule="evenodd" d="M24.5106 56.7421C25.2242 54.7068 25.7501 52.0709 25.8734 49.4818H41.9503C42.1017 52.0709 42.6747 54.7068 43.4178 56.7421H24.5106ZM2.80835 37.8535V7.40926C2.80835 4.93549 4.81098 2.93286 7.28475 2.93286H61.8555C63.6704 2.93286 65.1429 4.40539 65.1429 6.22023V37.8535H2.80835ZM49.6993 21.4244C49.1972 21.4244 48.7902 21.8314 48.7902 22.3335V31.3313C48.7902 31.8334 49.1972 32.2404 49.6993 32.2404H53.1323C53.6344 32.2404 54.0414 31.8334 54.0414 31.3313V22.3335C54.0414 21.8314 53.6344 21.4244 53.1323 21.4244H49.6993ZM18.7435 11.707H29.1008V15.5304C29.1008 16.0322 29.5082 16.4395 30.0099 16.4395C30.5117 16.4395 30.9189 16.0322 30.9189 15.5304V10.7979C30.9189 10.2959 30.5119 9.88888 30.0099 9.88888H18.7435C18.2419 9.88888 17.8345 10.2961 17.8345 10.7979C17.8345 11.2996 18.2419 11.707 18.7435 11.707ZM61.0251 33.7132H41.0554V13.3039C41.0554 12.8022 40.648 12.3949 40.1464 12.3949C39.6446 12.3949 39.2373 12.8022 39.2373 13.3039V34.6222C39.2373 35.1242 39.6443 35.5312 40.1464 35.5312H61.0251C61.5267 35.5312 61.9341 35.1239 61.9341 34.6222C61.9341 34.1205 61.5267 33.7132 61.0251 33.7132ZM56.0874 12.3949C55.5853 12.3949 55.1783 12.8019 55.1783 13.3039V31.3313C55.1783 31.8334 55.5853 32.2404 56.0874 32.2404H59.5203C60.0224 32.2404 60.4294 31.8334 60.4294 31.3313V13.3039C60.4294 12.8019 60.0224 12.3949 59.5203 12.3949H56.0874ZM26.0442 22.8798H33.9756C34.4773 22.8798 34.8847 22.4724 34.8847 21.9707C34.8847 21.469 34.4773 21.0617 33.9756 21.0617H26.0442C25.5424 21.0617 25.1352 21.469 25.1352 21.9707C25.1352 22.4724 25.5424 22.8798 26.0442 22.8798ZM43.3113 17.1606C42.8092 17.1606 42.4022 17.5676 42.4022 18.0696V31.3313C42.4022 31.8334 42.8092 32.2404 43.3113 32.2404H46.7442C47.2463 32.2404 47.6533 31.8334 47.6533 31.3313V18.0696C47.6533 17.5676 47.2463 17.1606 46.7442 17.1606H43.3113ZM26.0442 19.5522H33.9756C34.4773 19.5522 34.8847 19.1449 34.8847 18.6431C34.8847 18.1415 34.4773 17.7341 33.9756 17.7341H26.0442C25.5424 17.7341 25.1352 18.1415 25.1352 18.6431C25.1352 19.1449 25.5424 19.5522 26.0442 19.5522ZM26.0442 26.2074H30.0099C30.5117 26.2074 30.9189 25.8 30.9189 25.2984C30.9189 24.7966 30.5117 24.3893 30.0099 24.3893H26.0442C25.5424 24.3893 25.1352 24.7966 25.1352 25.2984C25.1352 25.8 25.5424 26.2074 26.0442 26.2074ZM6.30688 9.66954C6.29259 13.3313 6.57271 15.4872 7.50799 17.3733C8.14211 18.6518 9.08038 19.8129 10.4667 21.2205C9.08038 22.6281 8.14211 23.7892 7.50799 25.0677C6.42349 27.2546 6.22 29.8044 6.3348 34.6438C6.34675 35.1453 6.76361 35.5429 7.26514 35.531C7.76667 35.519 8.16432 35.1022 8.15237 34.6006C8.14536 34.3078 8.13938 34.024 8.13445 33.7491H15.3764C15.3716 34.024 15.3655 34.3078 15.3586 34.6006C15.3467 35.1022 15.7442 35.519 16.2459 35.531C16.7474 35.5429 17.1643 35.1453 17.1762 34.6438C17.1902 34.0486 17.1996 33.4881 17.2031 32.9586C17.2082 32.9198 17.2108 32.8802 17.2108 32.8401C17.2108 32.8029 17.2085 32.7663 17.2041 32.7303C17.2162 29.0936 16.9348 26.9467 16.0029 25.0677C15.3689 23.7892 14.4305 22.6281 13.0442 21.2205C14.4305 19.8129 15.3689 18.6518 16.0029 17.3733C16.9412 15.4815 17.22 13.3182 17.2039 9.63616C17.2043 9.62448 17.2045 9.61279 17.2045 9.60097C17.2045 9.58617 17.2041 9.57136 17.2035 9.55669C17.2005 9.00542 17.1909 8.42038 17.1762 7.7973C17.1643 7.29576 16.7474 6.89812 16.2459 6.91007C15.7442 6.92201 15.3467 7.33888 15.3586 7.84041C15.3655 8.13325 15.3716 8.417 15.3764 8.69193H8.13445C8.13938 8.417 8.14536 8.13325 8.15237 7.84041C8.16432 7.33888 7.76667 6.92201 7.26514 6.91007C6.76361 6.89812 6.34675 7.29576 6.3348 7.7973C6.32025 8.40778 6.3109 8.98191 6.30766 9.52344C6.30545 9.54903 6.30441 9.57487 6.30441 9.60097C6.30441 9.62409 6.30519 9.64694 6.30688 9.66954ZM11.7554 19.9393C11.0652 19.2405 10.4958 18.6123 10.0301 17.9938H13.4808C13.0151 18.6123 12.4458 19.2405 11.7554 19.9393ZM15.3901 10.51C15.3856 11.2125 15.3673 11.8493 15.3299 12.4338H8.18107C8.14354 11.8493 8.12523 11.2125 8.12081 10.51H15.3901ZM13.4808 24.4472H10.0301C10.4958 23.8287 11.0652 23.2006 11.7554 22.5018C12.4458 23.2006 13.0151 23.8287 13.4808 24.4472ZM15.1188 28.1891H8.3921C8.52105 27.4823 8.70377 26.8549 8.95675 26.2653H14.5543C14.8072 26.8549 14.99 27.4823 15.1188 28.1891ZM15.3901 31.931H8.12081C8.12523 31.2286 8.14354 30.5917 8.18107 30.0072H15.3299C15.3673 30.5917 15.3856 31.2286 15.3901 31.931ZM14.5543 16.1757H8.95675C8.70377 15.5861 8.52105 14.9588 8.3921 14.2519H15.1188C14.99 14.9588 14.8072 15.5861 14.5543 16.1757ZM65.1429 39.6716V43.191C65.1429 45.6611 63.1403 47.6638 60.6702 47.6638H7.28475C4.81098 47.6638 2.80835 45.6611 2.80835 43.191V39.6716H65.1429ZM31.5147 44.1221H36.4366C36.9382 44.1221 37.3456 43.7149 37.3456 43.2131C37.3456 42.7114 36.9382 42.304 36.4366 42.304H31.5147C31.0131 42.304 30.6057 42.7114 30.6057 43.2131C30.6057 43.7149 31.0131 44.1221 31.5147 44.1221ZM19.4071 58.5602H48.5479C50.0461 58.5602 51.2719 59.7861 51.2719 61.2844C51.2719 62.7826 50.0461 64.0085 48.5479 64.0085H19.4071C17.9088 64.0085 16.683 62.7826 16.683 61.2844C16.683 59.7861 17.9088 58.5602 19.4071 58.5602Z" fill="url(#paint0_linear_1_8798)"/>
<defs>
<linearGradient id="paint0_linear_1_8798" x1="62.9003" y1="64.0085" x2="33.1521" y2="-7.74173" gradientUnits="userSpaceOnUse">
<stop stop-color="#0669C0"/>
<stop offset="1" stop-color="#19BDF9"/>
</linearGradient>
</defs>
</svg>
