<svg width="122" height="30" viewBox="0 0 122 30" fill="none" xmlns="http://www.w3.org/2000/svg">
<path d="M5.48646 18.7896C5.48646 20.6657 5.9823 22.1264 6.97397 23.1717C7.99245 24.217 9.34595 24.7396 11.0345 24.7396C12.2674 24.7396 13.3126 24.4582 14.1703 23.8954C15.0548 23.3325 15.7114 22.5419 16.1402 21.5234H21.1656C20.6296 23.882 19.4771 25.7447 17.7082 27.1116C15.9392 28.4785 13.7281 29.1619 11.0747 29.1619C9.52016 29.1619 8.09966 28.9207 6.81316 28.4383C5.52667 27.9291 4.42779 27.2188 3.51652 26.3075C2.60525 25.3963 1.895 24.2974 1.38576 23.0109C0.903327 21.7244 0.662109 20.3039 0.662109 18.7494C0.662109 17.1949 0.903327 15.7878 1.38576 14.5281C1.895 13.2416 2.60525 12.1561 3.51652 11.2716C4.42779 10.3604 5.52667 9.66352 6.81316 9.18108C8.09966 8.67184 9.52016 8.41722 11.0747 8.41722C13.7013 8.41722 15.899 9.10067 17.668 10.4676C19.4369 11.8077 20.5894 13.6302 21.1254 15.9352H16.1C15.6712 14.9435 15.0146 14.1796 14.1301 13.6436C13.2724 13.1076 12.2406 12.8395 11.0345 12.8395C9.34595 12.8395 7.99245 13.3622 6.97397 14.4075C5.9823 15.4527 5.48646 16.9134 5.48646 18.7896Z" fill="#0C154C"/>
<path d="M22.78 0.658052H27.6044V28.8001H22.78V0.658052Z" fill="#0C154C"/>
<path d="M30.004 8.69865H34.8283V28.8001H30.004V8.69865Z" fill="#0C154C"/>
<path d="M46.2783 8.33682C47.9401 8.33682 49.3472 8.61824 50.4996 9.18108C51.6789 9.71712 52.6438 10.414 53.3943 11.2716C54.1447 12.1025 54.6808 13.0138 55.0024 14.0054C55.3508 14.9971 55.525 15.9352 55.525 16.8196V28.8001H50.7007V16.9403C50.7007 16.2166 50.5801 15.6002 50.3388 15.0909C50.0976 14.5817 49.776 14.1528 49.374 13.8044C48.9719 13.456 48.5029 13.2014 47.9669 13.0406C47.4308 12.8798 46.868 12.7993 46.2783 12.7993C45.6887 12.7993 45.1258 12.8798 44.5898 13.0406C44.0538 13.2014 43.5847 13.456 43.1827 13.8044C42.7807 14.1528 42.4591 14.5817 42.2178 15.0909C41.9766 15.6002 41.856 16.2166 41.856 16.9403V28.8001H37.0317V16.8196C37.0317 15.9352 37.1925 14.9971 37.5141 14.0054C37.8625 13.0138 38.412 12.1025 39.1624 11.2716C39.9129 10.414 40.8643 9.71712 42.0168 9.18108C43.1961 8.61824 44.6166 8.33682 46.2783 8.33682Z" fill="#0C154C"/>
<path d="M57.3555 18.7494C57.3555 17.1949 57.5967 15.7878 58.0792 14.5281C58.5884 13.2416 59.2986 12.1561 60.2099 11.2716C61.1212 10.3604 62.2201 9.66352 63.5066 9.18108C64.7931 8.67184 66.2136 8.41722 67.7681 8.41722C69.3226 8.41722 70.7297 8.67184 71.9894 9.18108C73.2759 9.66352 74.3748 10.3604 75.286 11.2716C76.1973 12.1561 76.8941 13.2416 77.3766 14.5281C77.8858 15.7878 78.1404 17.1949 78.1404 18.7494C78.1404 20.3039 77.8858 21.7244 77.3766 23.0109C76.8941 24.2974 76.1973 25.3963 75.286 26.3075C74.3748 27.2188 73.2759 27.9291 71.9894 28.4383C70.7297 28.9207 69.3226 29.1619 67.7681 29.1619C66.2136 29.1619 64.7931 28.9207 63.5066 28.4383C62.2201 27.9291 61.1212 27.2188 60.2099 26.3075C59.2986 25.3963 58.5884 24.2974 58.0792 23.0109C57.5967 21.7244 57.3555 20.3039 57.3555 18.7494ZM62.1799 18.7896C62.1799 20.6657 62.6757 22.1264 63.6674 23.1717C64.6858 24.217 66.0393 24.7396 67.7279 24.7396C69.4164 24.7396 70.7699 24.217 71.7884 23.1717C72.8068 22.1264 73.3161 20.6657 73.3161 18.7896C73.3161 16.9134 72.8068 15.4527 71.7884 14.4075C70.7699 13.3622 69.4164 12.8395 67.7279 12.8395C66.0393 12.8395 64.6858 13.3622 63.6674 14.4075C62.6757 15.4527 62.1799 16.9134 62.1799 18.7896Z" fill="#0C154C"/>
<path d="M77.4812 8.69865H82.6674L87.5721 22.3274L92.4769 8.69865H97.6631L90.0647 28.8001H85.0795L77.4812 8.69865Z" fill="#0C154C"/>
<path d="M98.8673 8.69865H103.692V28.8001H98.8673V8.69865Z" fill="#0C154C"/>
<path d="M110.634 14.126C110.634 14.6085 110.902 14.9837 111.438 15.2517C111.974 15.5197 112.644 15.7744 113.448 16.0156C114.279 16.23 115.164 16.4712 116.102 16.7392C117.04 16.9805 117.911 17.3423 118.715 17.8247C119.546 18.2803 120.229 18.8968 120.765 19.6741C121.301 20.4513 121.569 21.4698 121.569 22.7295C121.569 23.748 121.368 24.6592 120.966 25.4633C120.591 26.2405 120.055 26.8972 119.358 27.4332C118.661 27.9693 117.83 28.3713 116.866 28.6393C115.928 28.9073 114.882 29.0413 113.73 29.0413C112.658 29.0413 111.679 28.9341 110.795 28.7197C109.937 28.5053 109.16 28.2507 108.463 27.9559C107.793 27.6342 107.204 27.2992 106.694 26.9508C106.212 26.5756 105.81 26.2539 105.488 25.9859L108.061 22.2068C108.919 23.0109 109.844 23.6139 110.835 24.016C111.854 24.418 112.859 24.619 113.85 24.619C114.681 24.619 115.365 24.485 115.901 24.217C116.464 23.9222 116.745 23.4799 116.745 22.8903C116.745 22.3006 116.477 21.8584 115.941 21.5636C115.405 21.242 114.721 20.9739 113.891 20.7595C113.087 20.5183 112.215 20.2771 111.277 20.0359C110.339 19.7679 109.455 19.406 108.624 18.9504C107.82 18.4948 107.15 17.9051 106.614 17.1815C106.078 16.431 105.81 15.4393 105.81 14.2064C105.81 12.3571 106.453 10.9232 107.74 9.90473C109.053 8.88626 110.849 8.37702 113.127 8.37702C114.118 8.37702 115.03 8.47083 115.861 8.65844C116.691 8.84606 117.442 9.08727 118.112 9.3821C118.809 9.65012 119.439 9.97174 120.001 10.347C120.564 10.6954 121.06 11.0572 121.489 11.4324L118.916 15.1713C117.844 14.2869 116.799 13.6704 115.78 13.322C114.788 12.9736 113.877 12.7993 113.046 12.7993C112.269 12.7993 111.666 12.92 111.237 13.1612C110.835 13.4024 110.634 13.724 110.634 14.126Z" fill="#0C154C"/>
<path d="M99.3899 1.01988C98.8807 1.52912 98.6261 2.14556 98.6261 2.86921C98.6261 3.64647 98.8807 4.28972 99.3899 4.79896C99.8992 5.3082 100.529 5.56281 101.279 5.56281C102.03 5.56281 102.66 5.3082 103.169 4.79896C103.678 4.28972 103.933 3.64647 103.933 2.86921C103.933 2.14556 103.678 1.52912 103.169 1.01988C102.66 0.48384 102.03 0.21582 101.279 0.21582C100.529 0.21582 99.8992 0.48384 99.3899 1.01988Z" fill="#45BAE5"/>
<path d="M30.5266 1.01988C30.0174 1.52912 29.7628 2.14556 29.7628 2.86921C29.7628 3.64647 30.0174 4.28972 30.5266 4.79896C31.0359 5.3082 31.6657 5.56281 32.4162 5.56281C33.1666 5.56281 33.7965 5.3082 34.3057 4.79896C34.815 4.28972 35.0696 3.64647 35.0696 2.86921C35.0696 2.14556 34.815 1.52912 34.3057 1.01988C33.7965 0.48384 33.1666 0.21582 32.4162 0.21582C31.6657 0.21582 31.0359 0.48384 30.5266 1.01988Z" fill="#93E679"/>
</svg>
