<svg width="308" height="215" viewBox="0 0 308 215" fill="none" xmlns="http://www.w3.org/2000/svg">
<path opacity="0.3" d="M306.333 205.788C302.719 200.604 223.353 197.361 154.066 197.361C99.8707 197.361 23.4057 201.751 22.0079 205.471C8.90625 190.808 -3.2843 167.611 1.53401 150.989C10.863 118.807 77.3294 116.952 79.537 89.067C80.8839 72.038 56.6683 65.55 58.6972 50.3784C61.7094 27.8417 119.547 9.26561 169.58 17.4111C221.973 25.9416 254.028 61.8604 264.384 73.4652C274.48 84.7759 294.324 107.535 302.965 142.844C307.206 160.178 308.781 184.451 306.333 205.788Z" fill="#9EE9EF"/>
<path d="M208.283 78.0661C208.283 78.0661 209.501 73.5397 205.586 66.6196C201.961 60.2126 193.036 54.8467 193.036 54.8467C193.036 54.8467 193.564 62.5416 196.549 68.2011C200.088 74.9111 208.283 78.0661 208.283 78.0661Z" fill="#AFE9ED"/>
<path d="M203.067 57.116C207.582 65.6689 216.007 68.3988 216.007 68.3988C216.007 68.3988 217.488 63.5311 213.503 56.012C209.814 49.0496 200.353 43.1426 200.353 43.1426C200.353 43.1426 198.977 49.3698 203.067 57.116Z" fill="#AFE9ED"/>
<path d="M210.376 47.1601C214.528 55.8794 222.816 58.9162 222.816 58.9162C222.816 58.9162 224.49 54.1015 220.823 46.4358C217.428 39.3391 208.239 33.0869 208.239 33.0869C208.239 33.0869 206.615 39.2641 210.376 47.1601Z" fill="#AFE9ED"/>
<path d="M217.535 36.5585C221.024 46.0057 229.377 49.8233 229.377 49.8233C229.377 49.8233 231.589 44.9122 228.506 36.6054C225.651 28.9151 216.668 21.6624 216.668 21.6624C216.668 21.6624 214.375 28.0034 217.535 36.5585Z" fill="#AFE9ED"/>
<path d="M234.422 40.4337C234.422 40.4337 237.673 36.4018 237.013 28.02C236.403 20.2595 230.151 11.5002 230.151 11.5002C230.151 11.5002 226.462 16.8347 227.127 25.4643C227.861 34.9924 234.422 40.4337 234.422 40.4337Z" fill="#AFE9ED"/>
<path d="M230.036 51.221C230.036 51.221 233.443 54.599 242.323 55.1345C250.544 55.6305 261.169 51.3258 261.169 51.3258C261.169 51.3258 256.512 47.391 247.374 46.8277C237.283 46.2052 230.036 51.221 230.036 51.221Z" fill="#AFE9ED"/>
<path d="M241.967 57.8179C232.222 55.3324 224.179 60.0471 224.179 60.0471C224.179 60.0471 226.866 64.6552 235.444 66.8272C243.386 68.8385 254.594 65.5541 254.594 65.5541C254.594 65.5541 250.793 60.0688 241.967 57.8179Z" fill="#AFE9ED"/>
<path d="M233.617 68.1066C224.814 66.0877 217.516 69.2957 216.617 69.7151C217.622 68.424 218.51 67.3316 219.222 66.5525C222.911 62.5145 230.579 50.5248 234.66 43.3699C235.311 43.5616 239.892 44.7115 247.689 41.82C255.501 38.9234 263.359 30.8051 263.359 30.8051C263.359 30.8051 257.28 29.215 248.59 32.4234C241.006 35.2246 236.656 40.4198 235.166 42.4746C235.584 41.7275 235.954 41.0463 236.264 40.4502C238.028 37.0655 239.467 33.2027 240.409 30.3982C240.487 30.5333 240.533 30.6038 240.533 30.6038C240.533 30.6038 245.612 27.6497 248.212 19.0538C250.621 11.0949 247.371 0.271484 247.371 0.271484C247.371 0.271484 241.308 4.3823 238.615 13.2266C236.183 21.2151 239.012 27.7597 240.123 29.8786C237.438 35.7867 231.568 48.0042 225.907 55.1266C222.16 59.8412 206.885 82.6228 199.465 87.921C194.323 91.593 190.145 92.8298 190.145 92.8298L191.816 94.6477C191.816 94.6477 196.629 92.6945 200.306 90.0194C203.709 87.5435 211.546 76.2447 216.552 69.7993C216.851 70.2031 219.641 73.706 227.436 75.4817C235.1 77.2285 245.851 74.634 245.851 74.634C245.851 74.634 242.134 70.0608 233.617 68.1066Z" fill="#AFE9ED"/>
<path d="M222.819 76.7354C215.2 75.5749 209.429 79.5475 209.429 79.5475C209.429 79.5475 211.828 82.7262 218.532 83.7361C224.739 84.6719 233.033 81.5301 233.033 81.5301C233.033 81.5301 229.717 77.7867 222.819 76.7354Z" fill="#AFE9ED"/>
<path d="M153.636 92.1452C153.636 92.1452 150.032 91.9026 145.387 95.8991C141.086 99.5996 138.366 107.151 138.366 107.151C138.366 107.151 144.105 105.599 147.936 102.494C152.479 98.8132 153.636 92.1452 153.636 92.1452Z" fill="#AFE9ED"/>
<path d="M138.579 99.2272C144.369 94.5326 145.171 87.7535 145.171 87.7535C145.171 87.7535 141.269 87.3633 136.181 91.5028C131.47 95.3346 128.421 103.372 128.421 103.372C128.421 103.372 133.335 103.479 138.579 99.2272Z" fill="#AFE9ED"/>
<path d="M129.957 95.1929C135.927 90.7473 136.981 84.0267 136.981 84.0267C136.981 84.0267 133.091 83.4826 127.844 87.4035C122.988 91.0331 119.637 98.9169 119.637 98.9169C119.637 98.9169 124.551 99.219 129.957 95.1929Z" fill="#AFE9ED"/>
<path d="M120.87 91.3693C127.49 87.3161 129.124 80.4288 129.124 80.4288C129.124 80.4288 125.08 79.4921 119.262 83.0681C113.876 86.3784 109.738 94.2566 109.738 94.2566C109.738 94.2566 114.875 95.0395 120.87 91.3693Z" fill="#AFE9ED"/>
<path d="M121.269 78.0211C121.269 78.0211 117.734 76.1674 111.496 77.9218C105.721 79.5459 100.035 85.5844 100.035 85.5844C100.035 85.5844 104.621 87.5747 111.045 85.7791C118.139 83.797 121.269 78.0211 121.269 78.0211Z" fill="#AFE9ED"/>
<path d="M130.082 79.7211C130.082 79.7211 132.125 76.639 131.2 69.8454C130.343 63.5561 125.497 56.168 125.497 56.168C125.497 56.168 123.22 60.2782 124.163 67.2713C125.204 74.9933 130.082 79.7211 130.082 79.7211Z" fill="#AFE9ED"/>
<path d="M133.282 69.7126C132.863 77.453 137.632 82.8268 137.632 82.8268C137.632 82.8268 140.714 80.1055 141.071 73.2946C141.401 66.9888 137.239 59.0073 137.239 59.0073C137.239 59.0073 133.662 62.7032 133.282 69.7126Z" fill="#AFE9ED"/>
<path d="M142.312 74.4841C142.104 81.4417 145.623 86.4784 146.075 87.0953C144.948 86.5293 143.989 86.0212 143.293 85.5996C139.688 83.4157 129.475 79.4144 123.454 77.4016C123.501 76.8802 123.684 73.2448 120.33 67.7835C116.97 62.3112 109.655 57.5867 109.655 57.5867C109.655 57.5867 109.364 62.4207 113.091 68.5094C116.345 73.8238 120.925 76.3341 122.701 77.1531C122.074 76.9491 121.503 76.7713 121.006 76.6257C118.183 75.7994 115.047 75.29 112.786 74.9983C112.876 74.9186 112.923 74.8738 112.923 74.8738C112.923 74.8738 109.928 71.4764 103.04 70.7981C96.6621 70.1697 88.9661 74.2479 88.9661 74.2479C88.9661 74.2479 92.9822 78.2159 100.072 78.927C106.476 79.5689 111 76.4498 112.436 75.2924C117.305 76.4372 127.421 79.0443 133.654 82.2577C137.779 84.3843 157.291 92.5193 162.408 97.3352C165.955 100.673 167.516 103.646 167.516 103.646L168.64 102.111C168.64 102.111 166.442 98.7646 163.869 96.3852C161.487 94.1831 151.771 89.9512 146.148 87.1322C146.408 86.8451 148.639 84.2109 148.813 78.0519C148.986 71.9959 145.414 64.2568 145.414 64.2568C145.414 64.2568 142.513 67.7521 142.312 74.4841Z" fill="#AFE9ED"/>
<path d="M150.453 81.3551C150.717 87.2891 154.585 91.0569 154.585 91.0569C154.585 91.0569 156.629 88.7673 156.388 83.5478C156.165 78.7146 152.548 72.915 152.548 72.915C152.548 72.915 150.214 75.9824 150.453 81.3551Z" fill="#AFE9ED"/>
<path d="M186.207 39.7053C186.307 32.5179 182.047 25.1704 177.423 21.2204C174.634 18.8381 170.346 12.3887 170.346 12.3887C170.346 12.3887 169.779 13.6971 166.947 16.8749C162.022 22.4029 157.838 23.0734 156.724 33.763C156.04 40.3233 158.509 49.241 170.181 55.9734C173.956 58.1499 175.757 57.7714 175.757 57.7714C175.757 57.7714 186.092 48.0579 186.207 39.7053Z" fill="#AFE9ED"/>
<path d="M169.707 37.1065C168.335 26.727 170.346 12.3887 170.346 12.3887C170.346 12.3887 169.779 13.6971 166.947 16.8749C162.022 22.4029 157.838 23.0734 156.724 33.763C156.04 40.3233 158.509 49.241 170.181 55.9734C173.956 58.1499 175.757 57.7714 175.757 57.7714C175.757 57.7714 171.16 48.1001 169.707 37.1065Z" fill="#AFE9ED"/>
<path d="M178.665 76.9581C178.697 76.4607 178.734 75.7346 178.75 74.8115C178.784 72.9658 178.739 70.3286 178.402 67.1885C178.062 64.0518 177.427 60.4066 176.26 56.6329C175.679 54.7473 174.962 52.833 174.096 50.9502C173.88 50.479 173.653 50.0109 173.418 49.5452C173.179 49.0856 172.94 48.6245 172.701 48.1626C172.243 47.2537 171.821 46.3081 171.458 45.3454C170.724 43.4202 170.201 41.4141 169.862 39.4067C169.52 37.3995 169.356 35.3928 169.299 33.4473C169.24 31.5013 169.285 29.6151 169.366 27.8283C169.448 26.041 169.567 24.3517 169.681 22.7927C169.797 21.2335 169.904 19.8039 169.999 18.537C170.09 17.2695 170.162 16.1639 170.213 15.253C170.264 14.3422 170.297 13.6259 170.317 13.1379C170.336 12.6492 170.346 12.3889 170.346 12.3889C170.346 12.3889 170.33 12.649 170.301 13.1368C170.271 13.6247 170.223 14.3397 170.152 15.2487C170.081 16.158 169.986 17.2615 169.868 18.5262C169.747 19.7907 169.609 21.2178 169.46 22.7741C169.312 24.3311 169.157 26.0192 169.037 27.8097C168.917 29.6 168.831 31.4935 168.848 33.4563C168.865 35.4182 168.987 37.4509 169.291 39.4976C169.591 41.5441 170.081 43.6034 170.79 45.591C171.143 46.587 171.55 47.5571 172.006 48.5128C172.236 48.9773 172.464 49.4409 172.692 49.9034C172.914 50.3647 173.128 50.8277 173.33 51.2936C174.143 53.1564 174.81 55.0464 175.344 56.907C176.416 60.6295 176.97 64.219 177.243 67.3024C177.514 70.3892 177.508 72.9753 177.44 74.775C177.406 75.6753 177.357 76.38 177.316 76.8573C177.296 77.0963 177.278 77.2781 177.266 77.399C177.252 77.5172 177.246 77.578 177.246 77.578L178.604 77.7302C178.604 77.7302 178.61 77.6616 178.622 77.5285C178.634 77.3977 178.649 77.2067 178.665 76.9581Z" fill="#92D9DE"/>
<path d="M174.752 49.8412C175.069 49.3918 175.508 48.7435 175.997 47.9436C176.489 47.1454 177.031 46.1955 177.559 45.1515C177.827 44.631 178.083 44.084 178.338 43.5253C178.586 42.9635 178.83 42.3904 179.052 41.8074C179.164 41.517 179.273 41.2255 179.374 40.9317C179.48 40.6402 179.576 40.3461 179.669 40.0541C179.856 39.4708 180.018 38.8892 180.161 38.3236C180.301 37.7575 180.419 37.2062 180.513 36.6801C180.567 36.4189 180.597 36.1605 180.637 35.9124C180.678 35.6649 180.705 35.4236 180.73 35.192C180.789 34.7302 180.809 34.3033 180.836 33.9269C180.851 33.5494 180.857 33.2203 180.863 32.9494C180.852 32.4081 180.845 32.0984 180.845 32.0984C180.845 32.0984 180.837 32.4076 180.821 32.9486C180.803 33.2184 180.782 33.5457 180.748 33.9203C180.702 34.294 180.662 34.7161 180.581 35.1719C180.546 35.4005 180.508 35.638 180.455 35.8816C180.404 36.1256 180.361 36.3794 180.296 36.6359C180.178 37.1518 180.034 37.6911 179.869 38.2439C179.701 38.7953 179.514 39.361 179.301 39.9274C179.195 40.2109 179.088 40.4958 178.969 40.7781C178.856 41.0624 178.734 41.3444 178.61 41.6251C178.364 42.1879 178.096 42.7406 177.826 43.2811C177.549 43.818 177.271 44.3434 176.984 44.8417C176.415 45.8417 175.839 46.7471 175.32 47.5049C174.803 48.2641 174.345 48.8756 174.017 49.2959C173.853 49.5058 173.722 49.6682 173.633 49.7764C173.543 49.8834 173.495 49.9401 173.495 49.9401L174.237 50.5446C174.237 50.5446 174.285 50.4808 174.376 50.3602C174.466 50.2409 174.593 50.066 174.752 49.8412Z" fill="#92D9DE"/>
<path d="M170.277 41.4254C170.242 41.4126 170.191 41.3932 170.125 41.368C169.988 41.3159 169.788 41.2322 169.535 41.1199C169.283 41.0041 168.978 40.8622 168.637 40.6788C168.464 40.5916 168.287 40.4858 168.097 40.3812C167.912 40.2677 167.712 40.1567 167.513 40.0249C167.107 39.7733 166.69 39.4696 166.255 39.1381C166.149 39.0515 166.042 38.9637 165.934 38.875C165.88 38.8306 165.825 38.7857 165.77 38.7405C165.717 38.6933 165.665 38.6456 165.611 38.5977C165.505 38.5018 165.397 38.405 165.288 38.3069C165.184 38.2037 165.08 38.0998 164.974 37.9951C164.921 37.9424 164.868 37.8894 164.815 37.8363C164.764 37.7808 164.714 37.725 164.663 37.669C164.562 37.5568 164.457 37.4452 164.356 37.3296C164.168 37.0888 163.959 36.8573 163.785 36.5975C163.406 36.0976 163.098 35.5394 162.807 34.9738C162.546 34.3943 162.303 33.8019 162.155 33.1905C162.117 33.038 162.071 32.888 162.04 32.7355C162.013 32.5821 161.985 32.4295 161.958 32.2778C161.892 31.9753 161.877 31.67 161.845 31.3715C161.837 31.2969 161.83 31.2225 161.823 31.1482C161.817 31.0739 161.82 31 161.817 30.926C161.815 30.7783 161.812 30.6319 161.81 30.4872C161.795 30.1973 161.828 29.9149 161.841 29.639C161.851 29.5012 161.855 29.3648 161.869 29.2312C161.888 29.0981 161.906 28.967 161.924 28.8382C161.942 28.7092 161.96 28.5824 161.977 28.4581C161.986 28.3958 161.994 28.3339 162.003 28.2732C162.016 28.2129 162.029 28.1531 162.041 28.0941C162.144 27.6219 162.227 27.185 162.349 26.8103C162.459 26.4325 162.548 26.1001 162.653 25.8369C162.845 25.3049 162.955 25.0007 162.955 25.0007C162.955 25.0007 162.835 25.301 162.625 25.8269C162.511 26.0871 162.412 26.4167 162.289 26.792C162.154 27.1646 162.056 27.6 161.937 28.0724C161.922 28.1312 161.907 28.1912 161.892 28.2515C161.882 28.3126 161.871 28.3744 161.86 28.4367C161.838 28.5618 161.816 28.6891 161.794 28.8185C161.771 28.9483 161.749 29.0801 161.726 29.2139C161.707 29.3482 161.698 29.4861 161.684 29.6252C161.66 29.9038 161.618 30.1895 161.623 30.4841C161.621 30.6313 161.619 30.7803 161.616 30.9304C161.616 31.0056 161.611 31.0812 161.615 31.1571C161.62 31.2326 161.625 31.3086 161.629 31.3852C161.652 31.6907 161.658 32.0034 161.714 32.3144C161.737 32.4709 161.76 32.6284 161.783 32.7863C161.809 32.9439 161.852 33.0991 161.886 33.2571C162.017 33.8902 162.247 34.5084 162.497 35.1164C162.777 35.7102 163.079 36.2992 163.453 36.8296C163.542 36.9653 163.631 37.0993 163.731 37.2256C163.828 37.3535 163.925 37.4809 164.02 37.608C164.121 37.7309 164.225 37.8497 164.326 37.9695C164.376 38.0294 164.427 38.0888 164.478 38.1484C164.531 38.2047 164.584 38.2614 164.636 38.3176C164.742 38.4301 164.848 38.5413 164.952 38.6516C165.061 38.7568 165.169 38.8609 165.276 38.9638C165.329 39.0153 165.383 39.0663 165.436 39.1172C165.491 39.166 165.546 39.2139 165.6 39.2618C165.71 39.3573 165.817 39.452 165.924 39.5452C166.362 39.9032 166.785 40.2316 167.196 40.5058C167.397 40.6492 167.6 40.7708 167.788 40.8949C167.982 41.0097 168.161 41.1253 168.338 41.2217C168.685 41.4236 168.998 41.582 169.257 41.7115C169.517 41.838 169.725 41.9326 169.87 41.9936C169.944 42.0242 170.001 42.048 170.039 42.0638C170.076 42.0786 170.096 42.0864 170.096 42.0864L170.331 41.445C170.331 41.445 170.313 41.4386 170.277 41.4254Z" fill="#92D9DE"/>
<path d="M205.61 53.9435C210.38 46.7827 210.869 36.6286 208.787 29.6544C207.53 25.4479 207.408 16.1782 207.408 16.1782C207.408 16.1782 205.988 17.1255 201.077 18.4813C192.535 20.8399 187.893 18.7961 179.83 28.8188C174.881 34.9698 171.57 45.5391 178.932 59.8895C181.314 64.5298 183.37 65.3189 183.37 65.3189C183.37 65.3189 200.07 62.2663 205.61 53.9435Z" fill="#92D9DE"/>
<path d="M190.711 40.6137C196.073 29.2875 207.408 16.1782 207.408 16.1782C207.408 16.1782 205.988 17.1255 201.077 18.4813C192.535 20.8399 187.893 18.7961 179.829 28.8188C174.881 34.9698 171.57 45.5391 178.932 59.8895C181.314 64.5298 183.37 65.3189 183.37 65.3189C183.37 65.3189 185.03 52.6093 190.711 40.6137Z" fill="#92D9DE"/>
<path d="M173.83 86.4963C174.186 86.0173 174.694 85.3112 175.311 84.3939C176.543 82.56 178.211 79.8793 179.912 76.5035C181.608 73.1298 183.337 69.0521 184.615 64.5006C185.256 62.2276 185.778 59.8372 186.13 57.3815C186.22 56.7679 186.295 56.1497 186.362 55.5288C186.42 54.912 186.479 54.293 186.539 53.673C186.669 52.4619 186.859 51.237 187.119 50.0333C187.632 47.6215 188.409 45.2643 189.372 43.0263C190.333 40.7863 191.471 38.6621 192.677 36.669C193.881 34.6743 195.152 32.8075 196.394 31.0637C197.638 29.3203 198.854 27.6991 199.982 26.2059C201.112 24.7138 202.148 23.346 203.066 22.1338C203.981 20.9187 204.771 19.854 205.414 18.9713C206.057 18.0889 206.556 17.3903 206.893 16.9125C207.229 16.4332 207.408 16.1782 207.408 16.1782C207.408 16.1782 207.224 16.4297 206.877 16.9011C206.53 17.3718 206.017 18.0595 205.356 18.9275C204.694 19.7958 203.881 20.8432 202.941 22.038C201.998 23.2303 200.933 24.5759 199.771 26.0432C198.612 27.5126 197.36 29.1094 196.075 30.8309C194.792 32.5532 193.476 34.4008 192.218 36.3855C190.96 38.3684 189.763 40.4916 188.739 42.7464C187.712 44.9991 186.867 47.3878 186.289 49.8466C185.996 51.0767 185.775 52.3167 185.613 53.5739C185.542 54.1897 185.471 54.8043 185.4 55.4175C185.323 56.0249 185.237 56.6297 185.138 57.2293C184.745 59.6302 184.188 61.9634 183.516 64.1806C182.176 68.6194 180.401 72.588 178.673 75.8653C176.941 79.1449 175.255 81.7406 174.018 83.506C173.399 84.389 172.891 85.0654 172.541 85.5189C172.365 85.746 172.229 85.9172 172.138 86.0306C172.047 86.1407 172.001 86.1975 172.001 86.1975L173.268 87.2329C173.268 87.2329 173.319 87.168 173.418 87.0421C173.513 86.9183 173.653 86.7357 173.83 86.4963Z" fill="#70C6CC"/>
<g opacity="0.5">
<path d="M187.51 56.693C188.12 56.4469 188.983 56.0803 189.994 55.5941C191.007 55.1106 192.169 54.5083 193.378 53.8018C193.986 53.4521 194.598 53.0688 195.218 52.6727C195.832 52.2689 196.45 51.8515 197.051 51.4092C197.353 51.1904 197.652 50.9682 197.944 50.7384C198.24 50.5142 198.527 50.2805 198.81 50.0471C199.378 49.5826 199.918 49.1031 200.429 48.627C200.938 48.1492 201.414 47.6713 201.851 47.2038C202.074 46.976 202.273 46.736 202.474 46.5123C202.676 46.2901 202.86 46.0652 203.035 45.8483C203.394 45.4222 203.692 45.0061 203.964 44.6457C204.224 44.2759 204.444 43.9488 204.625 43.6801C204.966 43.1286 205.16 42.813 205.16 42.813C205.16 42.813 204.951 43.1184 204.584 43.6525C204.391 43.9117 204.156 44.2268 203.88 44.5818C203.591 44.9276 203.276 45.326 202.899 45.7316C202.715 45.9385 202.522 46.1525 202.311 46.3631C202.101 46.5753 201.893 46.8028 201.661 47.0179C201.207 47.4601 200.712 47.9089 200.187 48.3572C199.661 48.8029 199.104 49.2496 198.522 49.6807C198.232 49.8972 197.939 50.1138 197.636 50.3206C197.338 50.5331 197.033 50.7374 196.725 50.9389C196.113 51.3452 195.484 51.7265 194.861 52.0946C194.234 52.4544 193.613 52.802 193.001 53.1164C191.78 53.7525 190.612 54.2881 189.598 54.7132C188.586 55.1409 187.727 55.4576 187.125 55.6674C186.824 55.7719 186.587 55.85 186.426 55.9007C186.267 55.95 186.182 55.9762 186.182 55.9762L186.535 57.0655C186.535 57.0655 186.625 57.0329 186.795 56.9709C186.962 56.9088 187.204 56.8159 187.51 56.693Z" fill="#70C6CC"/>
</g>
<g opacity="0.5">
<path d="M188.478 45.3256C188.452 45.2905 188.413 45.2376 188.362 45.1691C188.259 45.0281 188.112 44.8137 187.931 44.5367C187.753 44.2568 187.538 43.9155 187.314 43.5097C187.197 43.3098 187.088 43.0885 186.965 42.8598C186.852 42.6254 186.723 42.3839 186.609 42.1223C186.365 41.606 186.142 41.0292 185.92 40.4137C185.87 40.2581 185.82 40.1004 185.768 39.9406C185.743 39.8606 185.717 39.7802 185.691 39.6994C185.669 39.6174 185.647 39.5351 185.624 39.4524C185.579 39.2867 185.534 39.1194 185.488 38.9502C185.451 38.7789 185.413 38.6064 185.375 38.4324C185.356 38.3452 185.337 38.2575 185.318 38.1696C185.304 38.0811 185.289 37.9919 185.274 37.9027C185.245 37.7242 185.213 37.5444 185.186 37.3626C185.153 36.9979 185.094 36.6294 185.087 36.255C185.031 35.5067 185.084 34.7451 185.159 33.9875C185.273 33.2356 185.414 32.482 185.662 31.7716C185.723 31.5935 185.774 31.4124 185.842 31.2391C185.914 31.0671 185.986 30.8959 186.056 30.7255C186.187 30.3788 186.37 30.062 186.532 29.7411C186.573 29.6611 186.614 29.5817 186.655 29.5025C186.697 29.4239 186.748 29.3509 186.793 29.275C186.886 29.1249 186.979 28.9764 187.071 28.8292C187.244 28.528 187.461 28.2655 187.653 27.9966C187.753 27.8647 187.845 27.7302 187.946 27.6051C188.051 27.4835 188.155 27.3635 188.257 27.2458C188.359 27.1277 188.459 27.0118 188.557 26.8979C188.606 26.8408 188.655 26.7842 188.703 26.7287C188.755 26.6765 188.807 26.6246 188.858 26.5736C189.268 26.1657 189.635 25.7801 190.001 25.4828C190.357 25.1744 190.662 24.8976 190.939 24.7014C191.478 24.2916 191.786 24.0574 191.786 24.0574C191.786 24.0574 191.471 24.2814 190.917 24.6733C190.634 24.861 190.32 25.1277 189.952 25.4251C189.575 25.712 189.194 26.0864 188.767 26.484C188.714 26.5337 188.66 26.5842 188.606 26.6351C188.556 26.6898 188.505 26.7449 188.453 26.8005C188.35 26.9122 188.245 27.0258 188.139 27.1413C188.032 27.2571 187.923 27.3748 187.813 27.4944C187.707 27.6172 187.609 27.7502 187.504 27.8806C187.3 28.1457 187.071 28.4052 186.886 28.7051C186.787 28.8516 186.688 28.9997 186.588 29.1491C186.539 29.2246 186.486 29.2977 186.44 29.3761C186.395 29.4552 186.351 29.5348 186.306 29.6149C186.131 29.9367 185.933 30.2547 185.788 30.6041C185.709 30.7763 185.63 30.9495 185.55 31.1232C185.475 31.2988 185.417 31.4825 185.348 31.6634C185.069 32.385 184.898 33.1561 184.755 33.9295C184.651 34.7087 184.572 35.4967 184.603 36.2727C184.604 36.4667 184.607 36.66 184.626 36.8516C184.64 37.0431 184.654 37.234 184.668 37.4238C184.689 37.6127 184.716 37.7995 184.74 37.9857C184.752 38.0789 184.764 38.1715 184.776 38.2641C184.793 38.3554 184.81 38.4469 184.826 38.5374C184.86 38.7194 184.893 38.8994 184.926 39.0779C184.968 39.2548 185.009 39.4296 185.05 39.6027C185.07 39.6892 185.09 39.7751 185.111 39.8608C185.134 39.9455 185.158 40.0294 185.182 40.1129C185.23 40.2798 185.277 40.445 185.323 40.608C185.531 41.2523 185.743 41.8576 185.978 42.3999C186.087 42.6748 186.212 42.929 186.321 43.1758C186.441 43.4169 186.546 43.65 186.661 43.8615C186.879 44.2899 187.091 44.6527 187.267 44.9508C187.446 45.247 187.594 45.4769 187.7 45.6326C187.755 45.7115 187.796 45.7722 187.824 45.813C187.852 45.8521 187.867 45.8727 187.867 45.8727L188.52 45.3809C188.52 45.3808 188.506 45.3622 188.478 45.3256Z" fill="#70C6CC"/>
</g>
<path d="M170.57 51.5908C167.604 43.5148 159.695 37.1271 152.836 34.6927C148.698 33.2244 141.143 27.8528 141.143 27.8528C141.143 27.8528 141.07 29.5579 139.266 34.3224C136.129 42.6102 131.74 45.1516 135.072 57.5765C137.118 65.2017 143.697 74.1114 159.626 76.6368C164.778 77.4527 166.628 76.2586 166.628 76.2586C166.628 76.2586 174.019 60.9755 170.57 51.5908Z" fill="#92D9DE"/>
<path d="M151.016 55.7528C145.037 44.7396 141.143 27.853 141.143 27.853C141.143 27.853 141.07 29.5582 139.266 34.3227C136.129 42.6105 131.74 45.1518 135.072 57.5768C137.118 65.2019 143.697 74.1117 159.626 76.637C164.778 77.453 166.628 76.2588 166.628 76.2588C166.628 76.2588 157.347 67.4181 151.016 55.7528Z" fill="#92D9DE"/>
<path d="M178.096 96.4578C177.919 95.8879 177.649 95.0606 177.272 94.0217C176.519 91.9445 175.339 89.0164 173.617 85.6511C171.895 82.2906 169.623 78.4886 166.703 74.7705C165.246 72.912 163.625 71.0794 161.85 69.346C161.407 68.9115 160.953 68.4858 160.491 68.0658C160.027 67.6544 159.563 67.2413 159.097 66.8276C158.196 66.0078 157.319 65.1318 156.501 64.2114C154.857 62.3737 153.412 60.3558 152.174 58.2573C150.933 56.1601 149.889 53.9878 148.992 51.8379C148.093 49.6882 147.336 47.5607 146.661 45.5288C145.987 43.4959 145.396 41.557 144.856 39.7657C144.319 37.9731 143.826 36.3294 143.389 34.8729C142.948 33.4172 142.555 32.1506 142.222 31.1108C141.889 30.0707 141.619 29.2559 141.432 28.7022C141.244 28.1479 141.144 27.8528 141.144 27.8528C141.144 27.8528 141.238 28.15 141.414 28.7077C141.589 29.2661 141.842 30.0858 142.152 31.1321C142.462 32.1786 142.828 33.4529 143.238 34.9168C143.644 36.3823 144.102 38.036 144.601 39.8397C145.103 41.6431 145.653 43.596 146.285 45.649C146.918 47.7012 147.633 49.8543 148.493 52.0407C149.351 54.2265 150.359 56.4458 151.575 58.6035C152.787 60.7621 154.217 62.8537 155.861 64.7715C156.681 65.734 157.552 66.6436 158.471 67.5165C158.926 67.9374 159.38 68.3576 159.833 68.7769C160.278 69.1978 160.716 69.6234 161.141 70.0578C162.848 71.7914 164.403 73.6183 165.796 75.4693C168.588 79.1707 170.745 82.9453 172.371 86.2745C173.996 89.6084 175.097 92.5014 175.792 94.5418C176.14 95.5626 176.386 96.3714 176.545 96.9222C176.625 97.198 176.683 97.4089 176.721 97.5495C176.756 97.6873 176.775 97.7582 176.775 97.7582L178.358 97.3466C178.358 97.3466 178.336 97.2673 178.292 97.1131C178.249 96.9625 178.184 96.7425 178.096 96.4578Z" fill="#70C6CC"/>
<g opacity="0.5">
<path d="M162.108 67.8257C162.27 67.1876 162.483 66.275 162.688 65.1713C162.895 64.0686 163.094 62.7747 163.238 61.3818C163.314 60.6853 163.366 59.9642 163.412 59.2306C163.448 58.4966 163.476 57.7513 163.473 57.005C163.475 56.632 163.472 56.2596 163.459 55.8881C163.452 55.5168 163.433 55.1473 163.412 54.781C163.372 54.0486 163.304 53.3293 163.221 52.6361C163.135 51.9432 163.031 51.2765 162.911 50.6482C162.859 50.3335 162.782 50.0315 162.72 49.7372C162.66 49.4431 162.587 49.1615 162.515 48.8923C162.383 48.3507 162.223 47.8652 162.093 47.4326C161.948 47.0043 161.813 46.634 161.703 46.3287C161.459 45.7286 161.319 45.3853 161.319 45.3853C161.319 45.3853 161.442 45.7345 161.657 46.3456C161.752 46.6549 161.868 47.03 161.991 47.4629C162.1 47.9003 162.236 48.3894 162.341 48.9333C162.399 49.2039 162.458 49.4856 162.504 49.7807C162.551 50.0752 162.612 50.3772 162.648 50.6921C162.738 51.3192 162.808 51.9833 162.86 52.6721C162.909 53.3603 162.941 54.0728 162.946 54.797C162.95 55.159 162.951 55.5236 162.94 55.8899C162.935 56.256 162.92 56.6233 162.901 56.9905C162.868 57.7247 162.804 58.4572 162.734 59.177C162.654 59.8958 162.569 60.6021 162.461 61.2819C162.254 62.643 161.997 63.902 161.742 64.9711C161.49 66.0408 161.239 66.9209 161.053 67.5309C160.96 67.8358 160.883 68.0733 160.829 68.2327C160.774 68.3907 160.746 68.4744 160.746 68.4744L161.833 68.8325C161.833 68.8325 161.86 68.7404 161.91 68.5666C161.96 68.395 162.027 68.1448 162.108 67.8257Z" fill="#70C6CC"/>
</g>
<g opacity="0.5">
<path d="M153.503 60.3353C153.458 60.3358 153.393 60.3359 153.308 60.3364C153.133 60.3367 152.873 60.3288 152.542 60.3116C152.212 60.2899 151.809 60.2623 151.35 60.2032C151.119 60.1798 150.876 60.1373 150.619 60.1019C150.363 60.0542 150.092 60.016 149.813 59.9537C149.252 59.8462 148.655 59.6857 148.028 59.5015C147.872 59.4499 147.715 59.3976 147.556 59.3449C147.476 59.3184 147.396 59.2916 147.316 59.2647C147.236 59.2345 147.157 59.2039 147.077 59.1731C146.917 59.1114 146.755 59.0495 146.591 58.9864C146.431 58.9156 146.269 58.8443 146.106 58.7726C146.024 58.7365 145.942 58.6999 145.861 58.663C145.781 58.6227 145.7 58.582 145.619 58.5412C145.458 58.4591 145.294 58.3791 145.131 58.2931C144.817 58.1048 144.485 57.9354 144.179 57.7197C143.542 57.323 142.958 56.8312 142.39 56.3236C141.851 55.7876 141.325 55.2296 140.899 54.6097C140.791 54.4555 140.674 54.3078 140.575 54.1505C140.478 53.9907 140.382 53.8319 140.287 53.6742C140.084 53.3643 139.936 53.0294 139.773 52.7094C139.732 52.6293 139.692 52.5493 139.653 52.4692C139.614 52.3887 139.585 52.3051 139.55 52.2235C139.484 52.0596 139.419 51.8967 139.355 51.7361C139.213 51.4187 139.129 51.0889 139.026 50.7749C138.978 50.6165 138.924 50.4622 138.883 50.3071C138.847 50.1504 138.811 49.9959 138.776 49.8442C138.741 49.6923 138.706 49.5431 138.672 49.3967C138.655 49.3232 138.638 49.2505 138.622 49.179C138.611 49.1059 138.599 49.0336 138.588 48.9625C138.501 48.3906 138.406 47.8668 138.382 47.3958C138.343 46.9265 138.3 46.5169 138.305 46.1778C138.292 45.5008 138.285 45.1135 138.285 45.1135C138.285 45.1135 138.279 45.5005 138.269 46.1785C138.254 46.5183 138.284 46.9291 138.307 47.4012C138.315 47.8754 138.393 48.4039 138.462 48.9829C138.471 49.055 138.48 49.1284 138.489 49.2022C138.503 49.275 138.518 49.3487 138.532 49.423C138.562 49.5721 138.592 49.7239 138.622 49.8781C138.652 50.0328 138.683 50.1898 138.715 50.3493C138.751 50.5074 138.801 50.6654 138.844 50.8271C138.937 51.1484 139.012 51.486 139.145 51.8128C139.205 51.9784 139.266 52.1459 139.328 52.3148C139.36 52.3989 139.387 52.4854 139.423 52.5687C139.461 52.651 139.499 52.734 139.537 52.8175C139.693 53.1492 139.834 53.4962 140.03 53.8197C140.123 53.9849 140.216 54.151 140.309 54.3176C140.406 54.4823 140.52 54.6377 140.626 54.7997C141.044 55.451 141.565 56.0437 142.105 56.6162C142.673 57.1597 143.262 57.6888 143.907 58.1215C144.064 58.2352 144.222 58.3466 144.388 58.4448C144.551 58.5464 144.713 58.6474 144.875 58.7484C145.04 58.8426 145.207 58.9311 145.371 59.0217C145.453 59.067 145.535 59.1118 145.617 59.1567C145.701 59.1969 145.784 59.2375 145.867 59.2777C146.034 59.358 146.199 59.4371 146.362 59.516C146.53 59.5866 146.695 59.6569 146.859 59.7259C146.941 59.7607 147.022 59.7948 147.103 59.829C147.186 59.86 147.268 59.8899 147.349 59.9203C147.512 59.9801 147.673 60.0399 147.832 60.0985C148.475 60.311 149.088 60.4968 149.665 60.6275C149.951 60.7015 150.23 60.7504 150.494 60.8085C150.759 60.8539 151.01 60.9061 151.248 60.9383C151.722 61.0153 152.141 61.0581 152.485 61.0921C152.83 61.1218 153.102 61.1388 153.291 61.1448C153.387 61.1472 153.46 61.1496 153.51 61.151C153.558 61.1515 153.583 61.1517 153.583 61.1517L153.572 60.3341C153.572 60.3341 153.548 60.3347 153.503 60.3353Z" fill="#70C6CC"/>
</g>
<path opacity="0.3" d="M306.328 206.116C306.328 207.259 302.538 208.348 295.67 209.343C274.375 212.429 223.471 214.6 164.062 214.6C122.359 214.6 84.8462 213.53 58.8251 211.825C35.8199 210.317 21.7959 208.314 21.7959 206.116C21.7959 204.236 32.0488 202.499 49.4033 201.092C75.3022 198.993 117.015 197.632 164.062 197.632C224.211 197.632 275.641 199.858 296.451 203.003C302.825 203.968 306.328 205.016 306.328 206.116Z" fill="#87C7CC"/>
<path d="M104.168 192.636C106.684 193.142 109.207 193.617 111.734 194.069H114.377L104.168 192.636Z" fill="#BFD2FF"/>
<path d="M222.397 191.835L90.0809 191.203C87.0529 191.189 84.6103 188.723 84.6248 185.695L84.9789 111.455C84.9934 108.428 87.4596 105.985 90.4871 105.999L222.803 106.63C225.831 106.645 228.274 109.111 228.259 112.139L227.905 186.379C227.891 189.406 225.425 191.849 222.397 191.835Z" fill="#63738F"/>
<path d="M157.292 108.031C157.291 108.393 156.996 108.685 156.634 108.684C156.272 108.682 155.979 108.387 155.981 108.025C155.983 107.662 156.277 107.37 156.64 107.372C157.002 107.374 157.294 107.669 157.292 108.031Z" fill="#333842"/>
<path d="M238.485 192.02L73.991 191.235C73.9731 195.012 77.0202 198.088 80.7973 198.106L231.613 198.826C235.39 198.844 238.467 195.797 238.485 192.02Z" fill="#3E4D66"/>
<path d="M220.169 189.149L92.3335 188.539C89.9676 188.528 88.0589 186.601 88.0701 184.235L88.4068 113.619C88.418 111.253 90.3452 109.345 92.7111 109.356L220.547 109.966C222.913 109.977 224.822 111.904 224.81 114.27L224.474 184.886C224.462 187.252 222.535 189.161 220.169 189.149Z" fill="#FEFEFF"/>
<path d="M222.874 114.142V117.268H235.2V114.142H222.874Z" fill="#FFB861"/>
<path d="M222.873 109.309V112.435H241.231V109.309H222.873Z" fill="#96B3FF"/>
<path d="M222.873 104.476V107.602H249.556V104.476H222.873Z" fill="#FF6EA1"/>
<path d="M222.873 99.6441V102.77H237.886V99.6441H222.873Z" fill="#3FD4C7"/>
<path d="M222.468 96.8589V119.475H251.518" stroke="#333842" stroke-width="0.252343" stroke-miterlimit="10" stroke-linecap="round"/>
<path d="M255.75 72.1821H236.807V73.9643H255.75V72.1821Z" fill="#E0E9FF"/>
<path d="M255.75 75.5332H236.807V77.315H255.75V75.5332Z" fill="#E0E9FF"/>
<path d="M255.75 78.8843H236.807V80.6735H255.75V78.8843Z" fill="#E0E9FF"/>
<path d="M235.202 72.1824H227.007V80.6738H235.202V72.1824Z" fill="#E0E9FF"/>
<path d="M255.751 82.2351H227.007V84.0173H255.751V82.2351Z" fill="#E0E9FF"/>
<path d="M255.751 85.5864H227.007V87.3686H255.751V85.5864Z" fill="#E0E9FF"/>
<path d="M135.96 70.1864L128.651 85.1109L115.37 68.564L103.412 83.8862L94.5944 74.3584L93.251 75.6021L103.531 86.7104L115.39 71.5141L129.027 88.5042L137.328 71.555L135.96 70.1864Z" fill="white"/>
<path d="M131.288 86.8077C131.288 85.5096 130.235 84.4575 128.937 84.4575C127.639 84.4575 126.587 85.5096 126.587 86.8077C126.587 88.1057 127.639 89.1579 128.937 89.1579C130.235 89.1579 131.288 88.1057 131.288 86.8077Z" fill="#FF6EA1"/>
<path d="M139.054 70.1918C139.054 68.8937 138.002 67.8411 136.704 67.8411C135.406 67.8411 134.354 68.8932 134.354 70.1918C134.354 71.4898 135.406 72.542 136.704 72.542C138.002 72.542 139.054 71.4898 139.054 70.1918Z" fill="#3FD4C7"/>
<path d="M115.29 72.5421C116.588 72.5421 117.64 71.4899 117.64 70.192C117.64 68.894 116.588 67.8418 115.29 67.8418C113.992 67.8418 112.94 68.894 112.94 70.192C112.94 71.4899 113.992 72.5421 115.29 72.5421Z" fill="#333842"/>
<path d="M103.752 87.3684C105.05 87.3684 106.103 86.316 106.103 85.0177C106.103 83.7194 105.05 82.667 103.752 82.667C102.454 82.667 101.401 83.7194 101.401 85.0177C101.401 86.316 102.454 87.3684 103.752 87.3684Z" fill="#FFB861"/>
<path d="M96.7832 75.4263C96.7832 74.1283 95.7311 73.0762 94.4324 73.0762C93.1338 73.0762 92.0823 74.1283 92.0823 75.4263C92.0823 76.7244 93.1344 77.7765 94.4324 77.7765C95.7305 77.7765 96.7832 76.7244 96.7832 75.4263Z" fill="#628AEC"/>
<path d="M87.5618 64.4597V95.8466H140.396" stroke="#333842" stroke-width="0.420172" stroke-miterlimit="10" stroke-linecap="round"/>
<path d="M119.216 180.508C129.109 178.919 135.841 169.61 134.252 159.717C132.662 149.823 123.354 143.091 113.46 144.681C103.567 146.27 96.835 155.579 98.4243 165.472C100.014 175.366 109.322 182.097 119.216 180.508Z" fill="#BFC5D4"/>
<path d="M115.908 162.886L101.757 157.95C101.203 159.537 100.921 161.205 100.921 162.886C100.921 171.107 107.686 177.872 115.908 177.872C118.624 177.872 121.29 177.134 123.619 175.736L115.908 162.886Z" fill="#628AEC"/>
<path d="M116.684 162.606L124.494 175.396C126.686 174.058 128.498 172.178 129.754 169.939C131.011 167.699 131.671 165.173 131.671 162.605H116.684V162.606Z" fill="#E0E9FF"/>
<path d="M116.77 161.883L131.756 161.676C131.728 159.637 131.283 157.625 130.45 155.763C129.617 153.902 128.413 152.229 126.912 150.85L116.77 161.883Z" fill="#FEFEFF"/>
<path d="M137.341 132.878H95.3352V135.203H137.341V132.878Z" fill="#333842"/>
<path d="M137.341 128.284H95.3352V130.609H137.341V128.284Z" fill="#333842"/>
<path d="M137.341 123.691H95.3352V126.016H137.341V123.691Z" fill="#333842"/>
<path d="M137.341 119.097H95.3352V121.422H137.341V119.097Z" fill="#333842"/>
<path d="M137.341 137.141H95.3352V139.467H137.341V137.141Z" fill="#333842"/>
<path d="M219.455 182.001H146.629V184.326H219.455V182.001Z" fill="#333842"/>
<path d="M219.455 177.408H146.629V179.733H219.455V177.408Z" fill="#333842"/>
<path d="M219.455 172.814H146.629V175.139H219.455V172.814Z" fill="#333842"/>
<path d="M118.965 99.8996C128.482 98.078 134.721 88.8863 132.899 79.3694C131.077 69.8525 121.886 63.6142 112.369 65.4358C102.852 67.2574 96.6137 76.4491 98.4353 85.966C100.257 95.4829 109.449 101.721 118.965 99.8996Z" fill="#E0E9FF"/>
<path d="M115.249 82.931L101.566 78.1584C101.031 79.6929 100.758 81.3058 100.758 82.931C100.758 90.8807 107.299 97.4219 115.249 97.4219C117.875 97.4219 120.454 96.7076 122.706 95.3564L115.249 82.931Z" fill="#FF6EA1"/>
<path d="M116 82.6605L123.552 95.0281C125.671 93.734 127.422 91.9166 128.637 89.7507C129.853 87.5849 130.491 85.1434 130.491 82.6599L116 82.6605Z" fill="#3FD4C7"/>
<path d="M116.083 81.9632L130.573 81.7626C130.546 79.7912 130.116 77.8455 129.311 76.0455C128.506 74.2455 127.341 72.6287 125.89 71.2942L116.083 81.9632Z" fill="#FEFEFF"/>
<path d="M217.207 53.9263H147.354V159.348H217.207V53.9263Z" fill="#E0E9FF"/>
<path d="M174.268 104.709H169.3V125.63H174.268V104.709Z" fill="#FFB861"/>
<path d="M195.615 94.4719H190.647V125.63H195.615V94.4719Z" fill="#FF6EA1"/>
<path d="M206.289 80.3433H201.321V125.631H206.289V80.3433Z" fill="#3FD4C7"/>
<path d="M157.868 103.036C168.562 100.241 188.102 89.936 196.95 80.0713" stroke="#333842" stroke-width="0.315623" stroke-miterlimit="10" stroke-linecap="round"/>
<path d="M197.666 79.2468L197.099 80.8098L196.878 80.1171L196.167 79.9656L197.666 79.2468Z" fill="#333842"/>
<path d="M184.942 100.15H179.974V125.63H184.942V100.15Z" fill="#FEFEFF"/>
<path d="M163.594 107.13H158.626V125.63H163.594V107.13Z" fill="#628AEC"/>
<path d="M210.752 125.634H154.503V78.0859" stroke="#333842" stroke-width="0.315623" stroke-miterlimit="10" stroke-linecap="round"/>
<path d="M211.443 61.3381H154.511V64.7679H211.443V61.3381Z" fill="#FEFEFF"/>
<path d="M199.405 66.8799H166.547V70.3097H199.405V66.8799Z" fill="#FEFEFF"/>
<path d="M211.449 130.03H154.503V133.182H211.449V130.03Z" fill="#FEFEFF"/>
<path d="M211.449 135.81H154.503V138.962H211.449V135.81Z" fill="#FEFEFF"/>
<path d="M211.449 141.59H154.503V144.742H211.449V141.59Z" fill="#FEFEFF"/>
<path d="M179.79 147.835H154.503V150.988H179.79V147.835Z" fill="#FEFEFF"/>
<path d="M238.665 206.413C239.864 206.293 241.052 206.06 242.25 205.938C243.262 205.834 244.279 205.776 245.287 205.627C246.001 205.521 246.741 205.378 247.425 205.093C247.857 204.912 247.58 203.779 247.517 203.462C247.368 202.708 247.375 201.884 247.403 201.116C246.252 201.095 245.099 201.073 243.95 201.024C243.737 201.015 243.517 201.007 243.316 201.085C243.048 201.189 242.848 201.43 242.641 201.643C241.738 202.571 240.556 203.076 239.446 203.669C238.335 204.263 237.216 205.026 236.654 206.238C236.61 206.334 236.571 206.445 236.578 206.548C237.275 206.528 237.971 206.483 238.665 206.413Z" fill="#333842"/>
<path d="M259.37 141.019C259.358 141.004 259.346 140.99 259.334 140.975C257.936 139.307 255.676 138.586 253.688 139.174C248.46 140.72 248.453 148.751 247.911 153.46C247.337 158.442 246.742 163.42 246.123 168.395C244.948 177.848 244.153 191.643 242.817 201.07C243.616 201.516 244.395 201.562 245.304 201.675C246.884 201.873 247.41 201.729 247.927 201.331C249.466 192.759 252.976 180.075 254.73 171.553C255.652 167.073 256.329 164.908 257.309 160.444C258.041 157.11 258.317 153.669 259.208 150.373C259.613 148.873 260.629 147.466 260.799 145.969C260.998 144.214 260.443 142.326 259.37 141.019Z" fill="#4F5D7A"/>
<path d="M253.202 178.235L251.209 177.789" stroke="#333842" stroke-width="0.420172" stroke-miterlimit="10" stroke-linecap="round" stroke-linejoin="round"/>
<path d="M253.182 178.229L250.784 179.341" stroke="#333842" stroke-width="0.420172" stroke-miterlimit="10" stroke-linecap="round" stroke-linejoin="round"/>
<path d="M259.258 205.946C259.285 205.954 259.314 205.96 259.344 205.966C259.574 205.969 259.804 205.977 260.034 205.987C260.093 205.988 260.151 205.99 260.208 205.995C260.483 206.009 260.757 206.026 261.032 206.048C263.173 206.217 265.363 206.601 267.476 206.646C268.214 206.662 268.99 206.641 269.66 206.38C271.388 205.705 269.282 204.821 268.597 204.43C267.877 204.019 267.253 203.632 266.484 203.288C265.509 202.852 264.573 202.315 263.69 201.684C262.457 201.985 261.188 202.108 259.927 202.047C259.279 202.015 258.317 205.644 259.258 205.946Z" fill="#333842"/>
<path d="M265.65 150.47C265.346 148.362 263.768 141.09 261.372 140.694C259.801 140.435 257.785 141.01 256.695 142.335C255.848 143.364 255.388 144.722 255.185 146.094C254.845 148.398 255.007 150.848 255.096 153.17C255.237 156.851 255.982 163.806 255.982 163.806C255.982 163.806 259.615 194.368 259.347 201.912C260.737 203.842 264.882 202.042 264.9 201.822C265.385 195.883 265.375 182.449 265.491 177.852C265.616 172.904 266.359 155.388 265.65 150.47Z" fill="#616E87"/>
<path d="M255.753 161.939C255.494 158.207 255.236 154.476 254.977 150.745" stroke="#333842" stroke-width="0.420172" stroke-miterlimit="10"/>
<path d="M265.586 150.066C265.165 147.564 263.632 141.068 261.372 140.694C260.692 140.582 259.929 140.627 259.194 140.82C257.788 139.265 255.612 138.605 253.687 139.174C250.061 140.246 248.947 144.439 248.424 148.479C250.354 149.832 252.677 150.55 255.008 150.882V150.884C255.055 150.891 255.102 150.894 255.149 150.901C255.398 150.934 255.647 150.964 255.897 150.99C255.982 150.999 256.068 151.007 256.154 151.015C256.448 151.042 256.741 151.065 257.032 151.081C257.079 151.084 257.124 151.085 257.171 151.087C257.428 151.1 257.684 151.109 257.939 151.115C258.022 151.116 258.105 151.119 258.188 151.119C258.469 151.123 258.748 151.124 259.023 151.119V151.119C259.035 151.119 259.047 151.119 259.059 151.119C261.286 151.08 263.47 150.71 265.586 150.066Z" fill="#3C4966"/>
<path d="M260.078 112.047C260.102 112.259 260.116 112.469 260.127 112.67C260.17 113.476 260.213 114.282 260.256 115.088C260.299 115.896 260.436 116.763 260.386 117.57C260.315 118.728 260.066 119.839 258.987 120.405C258.314 120.736 257.518 120.708 256.837 120.414C256.312 120.187 255.646 119.83 255.438 119.242C255.302 118.857 255.302 118.436 255.304 118.025C255.311 116.68 255.281 115.333 255.336 113.988C255.371 113.123 255.307 112.189 255.68 111.389C256.19 110.292 257.501 109.215 258.719 109.694C259.677 110.072 259.971 111.08 260.078 112.047Z" fill="#F7B699"/>
<path d="M258.644 115.272C259.399 114.462 259.894 113.445 260.103 112.363C260.095 112.257 260.09 112.154 260.079 112.047C259.971 111.08 259.677 110.071 258.719 109.694C257.502 109.215 256.191 110.292 255.68 111.389C255.308 112.189 255.371 113.123 255.336 113.989C255.306 114.716 255.302 115.445 255.303 116.173C256.417 116.573 257.861 116.112 258.644 115.272Z" fill="#C46E58"/>
<path d="M265.508 146.712L263.87 138.396L264.431 119.713C264.281 119.715 264.512 118.059 264.005 117.737C263.221 117.238 260.709 116.885 260.391 116.802C260.394 117.155 260.391 117.481 260.31 117.782C260.216 118.132 259.607 118.792 259.169 119.119C257.842 120.109 256.168 120.016 255.454 117.961C255.359 117.688 255.314 117.193 255.302 116.875C254.61 116.965 253.494 117.258 252.698 117.527C251.73 117.854 251.055 118.73 250.984 119.749L250.122 138.348L247.923 145.358C253.235 149.621 259.364 149.582 265.508 146.712Z" fill="white"/>
<path d="M256.458 139.784C259.77 138.077 262.585 135.418 264.478 132.209" stroke="#333842" stroke-width="0.167733" stroke-miterlimit="10" stroke-linecap="round"/>
<path d="M255.081 146.886C258.658 144.409 261.56 140.969 263.4 137.027" stroke="#333842" stroke-width="0.167733" stroke-miterlimit="10" stroke-linecap="round"/>
<path d="M256.449 120.599C257.396 121.103 258.604 121.077 259.529 120.534" stroke="#333842" stroke-width="0.167733" stroke-miterlimit="10" stroke-linecap="round"/>
<path d="M249.337 120.12C246.67 123.22 244.244 129.993 243.992 134.031C243.929 135.034 244.115 136.084 244.703 136.898C245.291 137.712 246.332 138.236 247.316 138.034C248.356 137.82 249.091 136.898 249.618 135.975C250.472 134.48 251.716 130.7 252.053 129.069C252.431 127.241 253.254 125.52 253.582 123.654C253.786 122.492 254.875 117.044 252.218 117.758C251.767 117.879 251.381 118.166 251.022 118.464C250.409 118.97 249.848 119.525 249.337 120.12Z" fill="#6C7995"/>
<path d="M249.647 150.401C250.001 150.58 250.364 150.739 250.729 150.888C251.907 141.95 255.123 116.955 255.122 116.886C254.428 116.973 253.483 117.241 252.677 117.501C251.694 117.818 250.979 118.673 250.866 119.679L250.088 130.445L249.018 140.521L246.495 148.13C247.416 149.034 248.47 149.802 249.647 150.401Z" fill="#6C7995"/>
<path d="M255.122 116.886L252.084 119.453L253.796 119.829L251.917 123.962L253.354 130.762L255.122 116.886Z" fill="#ABC0D4"/>
<path d="M252.042 121.045C252.042 121.045 250.368 125.548 250.338 127.683C250.32 128.915 249.178 139.564 249.178 139.564" stroke="#333842" stroke-width="0.167733" stroke-miterlimit="10"/>
<path d="M251.033 135.351C251.033 137.323 249.434 138.921 247.463 138.921C245.491 138.921 243.893 137.323 243.893 135.351C243.893 133.38 245.491 131.781 247.463 131.781C249.434 131.781 251.033 133.38 251.033 135.351Z" fill="#6C7995"/>
<path d="M246.38 132.208C247.484 131.877 248.751 132.157 249.613 132.922C250.475 133.687 250.904 134.911 250.707 136.046" stroke="#333842" stroke-width="0.167733" stroke-miterlimit="10"/>
<path d="M248.221 131.366C248.983 131.765 249.597 132.437 249.926 133.232" stroke="#333842" stroke-width="0.167733" stroke-miterlimit="10"/>
<path d="M263.375 151.425C265.238 151.007 265.606 150.737 267.39 149.989L265.63 140.701L264.552 119.642C264.399 119.644 264.564 118.015 264.041 117.703C263.3 117.259 261.28 116.944 260.713 116.834V151.898C261.614 151.78 262.505 151.621 263.375 151.425Z" fill="#6C7995"/>
<path d="M266.666 120.444C268.006 122.417 268.804 125.01 269.623 127.239C270.434 129.447 271.823 132.336 271.77 134.726C271.75 135.618 271.396 136.537 270.68 137.071C269.935 137.626 268.915 137.684 268.01 137.469C265.33 136.83 264.587 134.54 263.748 132.271C262.727 129.509 262.02 126.416 261.851 123.477C261.781 122.269 261.317 116.585 263.977 117.663C264.428 117.846 264.792 118.189 265.127 118.539C265.698 119.134 266.21 119.773 266.666 120.444Z" fill="#6C7995"/>
<path d="M263.993 133.035C263.562 131.548 263.132 130.061 262.701 128.574" stroke="#333842" stroke-width="0.167733" stroke-miterlimit="10"/>
<path d="M263.212 130.504C262.909 130.022 262.606 129.54 262.303 129.058" stroke="#333842" stroke-width="0.167733" stroke-miterlimit="10"/>
<path d="M260.712 116.83L263.407 119.755L261.662 119.915L263.013 124.249L260.742 130.819L260.712 116.83Z" fill="#ABC0D4"/>
<path d="M269.358 138.104L265.234 139.355C263.506 139.88 261.681 138.904 261.157 137.176C260.633 135.448 261.608 133.622 263.336 133.099L267.46 131.848C269.188 131.323 271.014 132.299 271.537 134.027C272.062 135.755 271.086 137.58 269.358 138.104Z" fill="#6C7995"/>
<path d="M261.371 133.891C262.885 133.341 264.401 132.79 265.916 132.24C267.216 131.768 268.621 131.448 269.953 132.035" stroke="#333842" stroke-width="0.167733" stroke-miterlimit="10" stroke-linecap="round"/>
<path d="M261.957 129.058H250.466V144.706H261.957V129.058Z" fill="#78C2F4"/>
<path d="M249.348 139.091C250.929 139.091 252.21 137.809 252.21 136.229C252.21 134.648 250.929 133.366 249.348 133.366C247.767 133.366 246.486 134.648 246.486 136.229C246.486 137.809 247.767 139.091 249.348 139.091Z" fill="#F7B699"/>
<path d="M259.867 137.173C259.792 138.752 261.01 140.093 262.59 140.169C264.169 140.245 265.51 139.027 265.586 137.447C265.662 135.868 264.443 134.527 262.864 134.451C261.285 134.375 259.944 135.594 259.867 137.173Z" fill="#F7B699"/>
<path d="M252.418 109.134C252.423 109.35 252.478 109.565 252.583 109.753C252.992 110.489 253.982 110.24 254.248 109.52C254.36 109.219 254.348 108.872 254.25 108.569C254.089 108.069 253.666 107.661 253.13 107.939C252.817 108.101 252.574 108.394 252.473 108.73C252.434 108.861 252.416 108.998 252.418 109.134Z" fill="#C46E58"/>
<path d="M255.095 104.471C255.841 104.073 257.468 103.547 259.005 103.767C260.689 103.938 261.465 104.765 261.64 105.792C261.941 107.556 261.872 109.677 261.093 111.252C260.962 111.516 260.691 112.188 260.535 112.438C259.285 114.426 256.969 114.603 255.807 114.322C254.418 113.986 253.665 112.828 253.429 111.206C253.387 110.915 253.377 109.964 253.372 109.67C253.344 107.862 254.311 104.89 255.095 104.471Z" fill="#F7B699"/>
<path d="M254.764 102.723C255.651 102.161 256.821 101.912 257.914 101.767C260.703 101.398 262.772 103.291 262.795 105.981C262.803 106.901 262.344 108.978 261.3 109.392C260.03 109.894 260.155 108.433 260.318 107.524C260.379 107.185 260.489 106.854 260.496 106.51C260.502 106.166 260.381 105.792 260.079 105.594C259.868 105.456 259.602 105.424 259.348 105.399C258.475 105.314 253.556 105.717 253.618 104.07C253.623 103.95 253.679 103.838 253.742 103.735C253.997 103.315 254.35 102.985 254.764 102.723Z" fill="#333842"/>
<path d="M255.373 105.665C256.582 105.924 257.987 105.819 259.056 105.169" stroke="#333842" stroke-width="0.420172" stroke-miterlimit="10" stroke-linecap="round" stroke-linejoin="round"/>
<path d="M261.515 103.013C261.3 102.237 260.583 101.625 259.783 101.535" stroke="#333842" stroke-width="0.420172" stroke-miterlimit="10" stroke-linecap="round" stroke-linejoin="round"/>
<path d="M262.236 103.008C262.047 102.878 261.76 102.917 261.613 103.094" stroke="#333842" stroke-width="0.420172" stroke-miterlimit="10" stroke-linecap="round" stroke-linejoin="round"/>
<path d="M253.279 108.8C253.291 108.863 253.305 108.925 253.322 108.984C253.361 108.972 253.44 108.943 253.46 108.904C254.016 107.885 253.699 106.37 254.552 105.526C254.843 105.239 255.289 105.028 255.332 104.621C255.35 104.444 255.282 104.271 255.208 104.109C255.169 104.023 255.124 103.933 255.048 103.876C254.946 103.8 254.807 103.797 254.68 103.811C253.008 104.008 253.119 105.927 253.194 107.152C253.226 107.664 253.182 108.289 253.279 108.8Z" fill="#333842"/>
<path d="M260.688 110.319C261.031 110.813 261.682 110.982 262.128 110.516C262.332 110.303 262.427 110.009 262.477 109.719C262.522 109.46 262.537 109.19 262.461 108.939C262.36 108.596 262.078 108.365 261.747 108.253C260.627 107.874 260.18 109.587 260.688 110.319Z" fill="#F7B699"/>
<path d="M254.429 107.173C254.71 107.095 255.009 107.084 255.294 107.142" stroke="#333842" stroke-width="0.266725" stroke-miterlimit="10" stroke-linecap="round"/>
<path d="M255.66 111.679C256.1 111.934 256.648 111.997 257.134 111.846" stroke="#333842" stroke-width="0.266725" stroke-miterlimit="10" stroke-linecap="round"/>
<path d="M257.992 107.085C258.403 107.037 258.828 107.117 259.193 107.311" stroke="#333842" stroke-width="0.266725" stroke-miterlimit="10" stroke-linecap="round"/>
<path d="M258.384 108.707C258.384 108.91 258.22 109.074 258.016 109.074C257.813 109.074 257.649 108.91 257.649 108.707C257.649 108.503 257.813 108.339 258.016 108.339C258.22 108.339 258.384 108.503 258.384 108.707Z" fill="#333842"/>
<path d="M255.148 108.535C255.148 108.738 254.983 108.902 254.779 108.902C254.576 108.902 254.411 108.738 254.411 108.535C254.411 108.331 254.576 108.167 254.779 108.167C254.983 108.167 255.148 108.332 255.148 108.535Z" fill="#333842"/>
<path d="M256.057 110.705C255.718 110.652 255.236 110.408 255.418 110.002C255.466 109.895 255.547 109.805 255.618 109.711C255.838 109.419 255.982 109.07 256.032 108.708" stroke="#333842" stroke-width="0.266725" stroke-miterlimit="10" stroke-linecap="round"/>
<path d="M85.7375 127.755H74.2466V143.402H85.7375V127.755Z" fill="#FFB861"/>
<path d="M73.1278 137.787C74.7086 137.787 75.9901 136.506 75.9901 134.925C75.9901 133.344 74.7086 132.063 73.1278 132.063C71.5471 132.063 70.2656 133.344 70.2656 134.925C70.2656 136.506 71.5471 137.787 73.1278 137.787Z" fill="#F7B699"/>
<path d="M83.6479 135.87C83.5722 137.449 84.7907 138.79 86.37 138.866C87.9493 138.942 89.2905 137.723 89.3667 136.144C89.4423 134.565 88.2238 133.224 86.6445 133.147C85.0653 133.072 83.7235 134.29 83.6479 135.87Z" fill="#F7B699"/>
<path d="M62.9169 207.293C62.7326 206.381 62.4777 205.495 62.1287 204.686C61.597 204.317 61.0923 203.898 60.6609 203.35C60.4615 203.097 60.2704 202.81 60.0077 202.691C59.8099 202.601 59.5909 202.616 59.378 202.633C58.2323 202.72 57.0833 202.776 55.9354 202.83C55.9365 203.758 55.9135 204.757 55.7387 205.673C55.6765 205.999 55.4407 207.04 55.6295 207.475L62.9169 207.293Z" fill="#333842"/>
<path d="M70.5727 142.431C70.5603 142.417 70.548 142.403 70.5357 142.389C69.097 140.756 66.8197 140.091 64.8466 140.729C59.6588 142.404 59.8515 150.434 59.4269 155.155C58.9776 160.149 58.5059 165.141 58.0112 170.13C57.0717 179.609 56.6207 193.419 55.5193 202.877C56.3294 203.303 57.1092 203.329 58.0213 203.42C59.6056 203.578 60.1277 203.421 60.6342 203.011C61.9597 194.403 65.1536 181.635 66.6942 173.073C67.5043 168.571 68.1267 166.39 68.9962 161.902C69.6455 158.551 69.8348 155.105 70.6432 151.787C71.0113 150.278 71.9912 148.845 72.1239 147.345C72.2797 145.585 71.6786 143.712 70.5727 142.431Z" fill="#4F5D7A"/>
<path d="M65.3341 179.79L63.3313 179.394" stroke="#333842" stroke-width="0.420172" stroke-miterlimit="10" stroke-linecap="round" stroke-linejoin="round"/>
<path d="M65.3127 179.785L62.9446 180.955" stroke="#333842" stroke-width="0.420172" stroke-miterlimit="10" stroke-linecap="round" stroke-linejoin="round"/>
<path d="M72.0778 207.341C72.1052 207.349 72.1349 207.354 72.1646 207.359C72.3949 207.356 72.6251 207.358 72.8554 207.363C72.9142 207.362 72.9725 207.363 73.0291 207.367C73.3041 207.374 73.5792 207.383 73.8543 207.398C75.9988 207.514 78.1977 207.844 80.3109 207.836C81.0493 207.833 81.8252 207.793 82.488 207.515C84.1989 206.797 82.0712 205.966 81.3765 205.592C80.6465 205.199 80.0129 204.828 79.2359 204.503C78.251 204.091 77.3003 203.577 76.4022 202.969C75.1775 203.301 73.912 203.455 72.6492 203.425C72.0022 203.411 71.1305 207.062 72.0778 207.341Z" fill="#333842"/>
<path d="M77.0867 151.724C76.7304 149.623 74.9713 142.393 72.5668 142.057C70.9903 141.837 68.9891 142.462 67.932 143.814C67.1113 144.864 66.6849 146.233 66.5168 147.609C66.2345 149.921 66.4563 152.367 66.6037 154.685C66.8373 158.362 67.7544 165.296 67.7544 165.296C67.7544 165.296 72.1466 195.759 72.067 203.307C73.5046 205.201 77.6038 203.299 77.6161 203.079C77.9534 197.129 77.6094 183.7 77.6105 179.101C77.6111 174.151 77.9175 156.622 77.0867 151.724Z" fill="#6C7995"/>
<path d="M67.4782 163.435C67.1269 159.712 66.7757 155.988 66.4238 152.264" stroke="#333842" stroke-width="0.420172" stroke-miterlimit="10"/>
<path d="M62.6807 154.728C64.3278 155.178 66.0628 155.519 67.7603 155.697C71.078 156.045 74.287 155.515 77.3705 154.442C77.2949 153.338 77.2019 152.405 77.0865 151.724C76.7302 149.623 74.971 142.393 72.5665 142.057C71.8842 141.962 71.1228 142.026 70.3923 142.238C68.9486 140.717 66.7564 140.112 64.846 140.729C60.2544 142.213 59.8773 148.672 59.5569 153.41C60.4964 154.03 61.5844 154.43 62.6807 154.728Z" fill="#3C4966"/>
<path d="M71.7666 113.074C71.7901 113.286 71.8047 113.496 71.8154 113.697C71.8585 114.503 71.9016 115.309 71.9448 116.115C71.9879 116.923 72.1246 117.79 72.0747 118.597C72.003 119.755 71.7549 120.866 70.6753 121.432C70.0025 121.763 69.2064 121.735 68.5257 121.441C68.0002 121.214 67.3341 120.857 67.1262 120.27C66.9901 119.884 66.9907 119.464 66.9929 119.053C66.9996 117.707 66.9699 116.361 67.0243 115.016C67.0596 114.151 66.9957 113.216 67.3683 112.416C67.8786 111.319 69.1896 110.243 70.4075 110.722C71.3655 111.099 71.659 112.107 71.7666 113.074Z" fill="#F7B699"/>
<path d="M74.6994 111.689L74.7094 111.673C74.6736 111.626 74.6411 111.585 74.6125 111.55C74.408 111.209 74.2545 110.817 74.0797 110.463C74.0898 110.484 73.9212 110.69 73.9038 110.731C73.845 110.87 73.831 111.042 73.8097 111.191C73.7632 111.513 73.7492 111.84 73.7683 112.165C73.7755 112.288 73.7901 112.418 73.8641 112.516C74.0366 112.745 74.6389 112.535 74.8747 112.501C74.9526 112.49 75.045 112.467 75.0719 112.393C75.1526 112.169 74.8333 111.866 74.6994 111.689Z" fill="#F7B699"/>
<path d="M66.7433 107.018C67.3892 106.551 68.8699 105.863 70.4178 105.902C72.0985 105.877 73.0296 106.585 73.4151 107.553C74.0056 109.035 74.2453 110.641 74.2504 112.231C74.2526 113.028 74.196 113.825 74.0879 114.615C73.9876 115.347 73.6582 115.865 72.8728 115.999C72.145 116.124 71.4072 116.18 70.6699 116.19C70.0128 116.2 69.2234 116.265 68.5932 116.073C67.5119 115.743 66.8867 114.675 66.5181 113.678C66.4161 113.403 66.2077 112.49 66.1422 112.208C65.7377 110.474 66.0632 107.508 66.7433 107.018Z" fill="#F7B699"/>
<path d="M72.8191 104.858C72.5143 104.112 71.7311 103.589 70.9255 103.594" stroke="#333842" stroke-width="0.420172" stroke-miterlimit="10" stroke-linecap="round" stroke-linejoin="round"/>
<path d="M73.5357 104.767C73.3317 104.66 73.0527 104.733 72.9272 104.927" stroke="#333842" stroke-width="0.420172" stroke-miterlimit="10" stroke-linecap="round" stroke-linejoin="round"/>
<path d="M70.5075 114.567C70.5753 114.552 70.6324 114.525 70.6672 114.481C70.7725 114.344 70.7462 113.866 70.7691 113.69C70.8347 113.18 70.9002 112.671 70.9663 112.161C71.0078 111.841 70.9731 111.569 71.2369 111.367C71.475 111.186 71.7832 111.115 72.0778 111.114C73.1283 111.111 73.3977 111.234 73.2442 110.099C73.1714 109.56 73.042 109.008 73.1456 108.463C73.2117 108.115 73.2958 108.049 73.5008 107.813C73.8286 107.435 74.1871 107.308 74.2745 106.883C73.6319 104.683 71.5484 103.419 69.0963 104.044C68.0279 104.316 66.8963 104.702 66.0811 105.365C65.7007 105.674 65.3893 106.043 65.1859 106.489C65.1355 106.599 65.0923 106.716 65.1019 106.836C65.1097 106.932 65.1343 107.017 65.1724 107.096C64.5271 108.084 64.9237 109.403 65.1181 110.471C65.2542 111.219 65.4845 111.948 65.7814 112.648C65.9299 112.997 66.0957 113.34 66.2761 113.674C66.3489 113.809 66.7041 114.624 66.8111 114.629C67.8856 114.678 68.963 114.666 70.0364 114.594C70.163 114.586 70.3607 114.602 70.5075 114.567Z" fill="#333842"/>
<path d="M71.4151 112.173C71.8134 112.624 72.4801 112.715 72.8689 112.2C73.0459 111.964 73.1053 111.661 73.1216 111.367C73.1361 111.104 73.1182 110.835 73.0146 110.594C72.8728 110.266 72.5658 110.07 72.2241 109.997C71.0672 109.753 70.8246 111.506 71.4151 112.173Z" fill="#F7B699"/>
<path d="M71.9006 110.73C71.9242 110.577 72.127 110.509 72.2687 110.571C72.4099 110.633 72.4956 110.777 72.5572 110.918C72.6597 111.154 72.7219 111.407 72.7393 111.663C72.6088 111.618 72.4485 111.695 72.4043 111.826C72.3595 111.956 72.4385 112.116 72.5695 112.16" stroke="#333842" stroke-width="0.266725" stroke-miterlimit="10" stroke-linecap="round"/>
<path d="M73.4812 109.191C73.7507 109.08 74.0465 109.034 74.3367 109.058" stroke="#333842" stroke-width="0.266725" stroke-miterlimit="10" stroke-linecap="round"/>
<path d="M74.355 110.458C74.3791 110.66 74.2345 110.843 74.0329 110.866C73.8312 110.89 73.6485 110.746 73.6244 110.544C73.6004 110.343 73.7449 110.159 73.9466 110.136C74.1483 110.112 74.3309 110.257 74.355 110.458Z" fill="#333842"/>
<path d="M73.5005 113.597C73.6333 113.595 73.9291 113.56 74.0551 113.543" stroke="#333842" stroke-width="0.266725" stroke-miterlimit="10" stroke-linecap="round"/>
<path d="M63.3783 140H59.85C57.8483 140 56.2258 138.378 56.2258 136.376C56.2258 134.374 57.8483 132.752 59.85 132.752H63.3783C65.38 132.752 67.0024 134.374 67.0024 136.376C67.0024 138.377 65.3794 140 63.3783 140Z" fill="#3D434F"/>
<path d="M61.4029 121.147C58.7362 124.247 56.3104 131.02 56.0577 135.059C55.995 136.061 56.1804 137.111 56.7687 137.925C57.3569 138.739 58.3978 139.263 59.3816 139.062C60.4219 138.848 61.157 137.925 61.6841 137.003C62.5385 135.508 63.7828 131.727 64.1195 130.096C64.497 128.268 65.3206 126.547 65.6483 124.681C65.8522 123.52 66.9419 118.071 64.2842 118.786C63.8337 118.907 63.4477 119.194 63.0881 119.492C62.4746 119.998 61.9138 120.553 61.4029 121.147Z" fill="#4F5D7A"/>
<path d="M65.8479 118.366L66.8373 116.8L72.1555 116.635L73.4334 118.448L65.8479 118.366Z" fill="white"/>
<path d="M77.3172 141.729L76.2393 120.67C76.0869 120.672 76.2511 119.044 75.7284 118.731C74.9878 118.287 72.9676 117.972 72.4006 117.863L66.8095 117.913C66.116 117.999 65.1709 118.268 64.3647 118.528C63.3815 118.845 62.6672 119.7 62.5535 120.706L61.7753 131.472L60.7058 141.547L58.1831 149.156C59.1041 150.06 60.1574 150.828 61.335 151.426C61.689 151.606 62.0515 151.765 62.4168 151.914C62.4168 151.914 67.5843 153.993 72.4006 152.925C73.3015 152.807 74.1928 152.648 75.0623 152.453C76.9256 152.035 77.2937 151.764 79.0774 151.016L77.3172 141.729Z" fill="#6C7995"/>
<path d="M83.9501 140H80.4212C78.4201 140 76.7971 138.378 76.7971 136.376C76.7971 134.374 78.4195 132.752 80.4212 132.752H83.9501C85.9513 132.752 87.5743 134.374 87.5743 136.376C87.5743 138.377 85.9513 140 83.9501 140Z" fill="#6C7995"/>
<path d="M78.3554 121.472C79.6955 123.445 80.4932 126.037 81.3123 128.267C82.1235 130.475 83.5118 133.364 83.4585 135.753C83.4389 136.646 83.0849 137.565 82.3689 138.099C81.6232 138.654 80.603 138.711 79.6988 138.496C77.0181 137.858 76.2753 135.568 75.4366 133.299C74.4159 130.537 73.7083 127.444 73.5391 124.505C73.4696 123.297 73.0052 117.613 75.6652 118.691C76.1162 118.874 76.4803 119.217 76.8159 119.567C77.3868 120.162 77.8994 120.8 78.3554 121.472Z" fill="#6C7995"/>
<path d="M77.1347 136.827C75.0736 132.616 74.821 131.089 74.3901 129.602" stroke="#333842" stroke-width="0.167733" stroke-miterlimit="10"/>
<path d="M74.901 131.531C74.5979 131.05 74.2948 130.568 73.9917 130.085" stroke="#333842" stroke-width="0.167733" stroke-miterlimit="10"/>
<path d="M219.631 144.07C214.74 145.037 214.606 150.657 215.032 154.68C215.929 163.176 218.399 183.292 218.399 183.292L223.101 207.969L226.387 208.153L224.642 183.182C224.642 183.182 225.476 164.99 226.312 158.653C227.667 149.778 226.13 142.786 219.631 144.07Z" fill="#4F5D7A"/>
<path d="M226.589 207.321C225.281 207.469 224.348 207.461 223.043 207.29C223.041 207.29 223.039 207.289 223.038 207.289C222.755 207.252 222.476 207.385 222.321 207.624C222.226 207.77 222.135 207.906 222.044 208.02C221.559 208.631 220.917 208.979 220.166 209.151C220.14 209.161 220.117 209.176 220.09 209.184C219.198 209.296 218.384 209.752 218.283 210.605H226.503C226.79 209.495 226.927 208.329 226.589 207.321Z" fill="#628AEC"/>
<path d="M226.653 210.476H218.28V211.556H226.653V210.476Z" fill="#333842"/>
<path d="M220.493 144.215C215.516 143.93 213.983 149.338 213.39 153.34C212.136 161.792 210.086 181.97 210.086 181.97L211.899 207.999L215.328 207.864L217.244 182.108C217.244 182.108 220.927 165.933 223.32 160.005C226.849 151.75 227.107 144.595 220.493 144.215Z" fill="#616E87"/>
<path d="M215.618 207.32C214.31 207.468 213.377 207.46 212.072 207.289C211.9 207.266 211.724 207.241 211.556 207.28C211.403 207.316 211.268 207.401 211.134 207.483C209.878 208.249 208.087 208.782 206.64 209.05C205.807 209.203 204.91 209.289 204.249 209.819C204.011 210.009 203.815 210.324 203.843 210.604H215.532C215.819 209.495 215.956 208.328 215.618 207.32Z" fill="#628AEC"/>
<path d="M215.507 210.476H203.569V211.556H215.507V210.476Z" fill="#333842"/>
<path d="M221.114 117.045C221.142 116.481 221.105 115.92 220.995 115.374C221.828 115.655 222.697 115.676 223.548 115.447C223.966 115.335 224.367 115.168 224.758 114.985C224.898 114.919 225.149 114.714 225.381 114.586C224.872 116.464 224.912 118.422 226.074 120.034C225.196 120.795 224.052 121.185 222.91 121.38C221.929 121.548 219.581 121.703 220.145 120.051C220.33 119.511 220.726 119.095 220.883 118.535C221.018 118.052 221.089 117.545 221.114 117.045Z" fill="#F7B699"/>
<path d="M223.387 115.485C222.588 115.67 221.776 115.637 220.995 115.374C221.104 115.92 221.142 116.481 221.114 117.045C221.089 117.545 221.017 118.052 220.882 118.535C220.868 118.585 220.85 118.633 220.833 118.681C220.929 118.67 221.026 118.653 221.123 118.634C222.234 117.886 222.995 116.749 223.387 115.485Z" fill="#C46E58"/>
<path d="M218.742 113.518C218.81 113.534 218.877 113.544 218.942 113.546C219.148 113.555 219.124 113.297 219.112 113.148C219.082 112.753 219.081 112.341 219.015 111.951C218.873 112.1 218.815 112.28 218.697 112.444C218.544 112.658 218.388 112.871 218.233 113.085C218.212 113.114 218.19 113.145 218.185 113.181C218.173 113.266 218.258 113.331 218.335 113.369C218.457 113.43 218.6 113.486 218.742 113.518Z" fill="#F7B699"/>
<path d="M226.136 113.361C226.484 112.546 226.666 111.661 226.641 110.777C226.612 109.82 226.299 108.859 225.687 108.122C224.794 107.047 223.273 106.538 221.913 106.858C221.564 106.941 221.228 107.077 220.918 107.257C220.162 107.697 219.283 108.582 219.159 109.495C219.131 109.7 219.173 109.896 219.134 110.104C219.075 110.411 219.01 110.717 218.963 111.026C218.868 111.643 218.814 112.269 218.843 112.893C218.877 113.623 218.967 114.363 219.253 115.035C219.541 115.708 219.996 116.163 220.552 116.451C221.592 116.992 222.85 116.823 223.827 116.172C224.845 115.495 225.651 114.495 226.136 113.361Z" fill="#F7B699"/>
<path d="M219.138 114.311C219.281 114.374 219.424 114.438 219.567 114.501" stroke="#333842" stroke-width="0.270423" stroke-miterlimit="10" stroke-linecap="round"/>
<path d="M206.528 126.66C206.596 126.294 206.871 125.975 207.222 125.852C207.584 125.726 208.198 125.725 208.319 125.361C208.379 125.178 208.439 125.11 208.293 124.986C208.147 124.861 207.95 124.81 207.759 124.799C207.17 124.762 206.573 125.094 206.293 125.613C206.207 125.772 206.083 125.981 205.908 125.93C205.826 125.906 205.772 125.827 205.739 125.748C205.534 125.268 205.817 124.731 206.091 124.287C206.307 123.937 206.538 123.573 206.895 123.371C207.296 123.143 207.785 123.158 208.245 123.19C209.173 123.253 210.146 123.324 210.93 123.876C211.136 124.021 211.323 124.19 211.529 124.335C212.055 124.708 212.676 124.918 213.289 125.122C213.098 125.785 212.907 126.448 212.716 127.111C212.706 127.145 212.694 127.183 212.663 127.201C212.631 127.221 212.59 127.213 212.553 127.204C211.427 126.929 210.126 126.698 208.997 126.521C208.187 126.418 207.328 126.521 206.528 126.66Z" fill="#F7B699"/>
<path d="M220.189 126.886C219.6 126.606 218.97 126.36 218.32 126.138C217.204 125.755 216.029 125.442 214.908 125.146C214.483 125.034 212.856 124.625 212.419 124.555C211.199 125.548 210.854 126.213 210.854 127.681C212.141 128.542 215.266 130.303 216.685 130.98C217.48 131.359 218.269 131.756 219.141 132.017C220.013 132.278 220.991 132.396 221.891 132.197C222.362 132.094 222.825 131.885 223.031 131.546C223.159 131.335 223.176 131.094 223.168 130.862C223.115 129.272 221.958 127.727 220.189 126.886Z" fill="#628AEC"/>
<path d="M198.985 133.599C198.501 132.741 198.389 131.668 198.744 130.75C198.876 130.41 199.097 130.069 199.445 129.959C199.862 129.826 200.319 130.079 200.583 130.428C200.846 130.778 200.971 131.209 201.139 131.613C201.322 132.05 201.56 132.463 201.848 132.839C202.146 133.229 202.509 133.606 202.595 134.09C202.664 134.474 202.532 134.888 202.254 135.162C201.222 136.178 199.485 134.487 198.985 133.599Z" fill="#F7B699"/>
<path d="M210.618 132.973L204.378 135.998L196.122 128.505L202.363 125.479L210.618 132.973Z" fill="#F4AE2D"/>
<path d="M209.599 132.661L204.239 135.259L197.106 128.784L202.466 126.186L209.599 132.661Z" fill="white"/>
<path d="M203.28 127.556L198.826 129.715L198.392 129.321L202.845 127.161L203.28 127.556Z" fill="#C8DDF7"/>
<path d="M205.556 129.621L201.102 131.78L200.667 131.386L205.121 129.227L205.556 129.621Z" fill="#C8DDF7"/>
<path d="M206.31 130.306L201.855 132.465L201.421 132.07L205.875 129.912L206.31 130.306Z" fill="#C8DDF7"/>
<path d="M207.063 130.99L202.609 133.149L202.174 132.755L206.629 130.596L207.063 130.99Z" fill="#C8DDF7"/>
<path d="M207.817 131.675L203.363 133.833L202.928 133.439L207.383 131.28L207.817 131.675Z" fill="#C8DDF7"/>
<path d="M208.571 132.359L204.117 134.518L203.683 134.123L208.136 131.964L208.571 132.359Z" fill="#C8DDF7"/>
<path d="M202.2 126.796L198.455 128.611L196.863 127.165L200.607 125.35L202.2 126.796Z" fill="#333842"/>
<path d="M199.631 132.914C199.568 132.986 199.511 133.064 199.461 133.145C198.989 133.903 199.902 134.607 200.483 135.016C201.803 135.945 203.415 136.389 204.945 136.835C205.809 137.087 208.311 136.47 207.621 135.113C207.149 134.186 205.753 133.653 204.835 133.405C203.882 133.227 203.068 132.83 202.711 131.864C202.552 131.435 202.488 130.977 202.348 130.541C202.314 130.434 202.272 130.324 202.189 130.248C202.106 130.172 201.969 130.144 201.88 130.214C201.831 130.253 201.805 130.315 201.783 130.375C201.516 131.12 201.995 131.672 201.078 132.109C200.773 132.254 200.438 132.334 200.143 132.498C199.949 132.604 199.775 132.747 199.631 132.914Z" fill="#F7B699"/>
<path d="M227.265 151.239C227.265 151.239 227.477 151.152 227.639 151.074C228.531 150.616 228.832 149.456 228.92 148.433C229.123 146.084 228.377 143.873 228.467 141.39C228.563 138.763 229.177 136.062 229.547 133.234C229.87 130.769 229.995 128.103 229.442 125.562C229.028 123.665 228.461 121.556 227.302 120.074C226.742 119.358 225.726 119.073 224.944 118.884C223.966 118.647 222.944 118.669 221.966 118.964C220.701 119.345 219.532 120.176 218.625 121.314C217.936 122.179 217.593 123.648 217.241 124.749C216.447 127.231 215.897 129.795 215.604 132.271C215.297 134.869 215.671 134.037 215.538 136.591C215.405 139.148 216.142 141.181 214.829 143.31C214.138 144.43 213.258 145.406 212.82 146.623C212.391 147.817 212.529 149.382 213.54 150.156C213.482 150.611 213.413 151.062 213.371 151.512C215.405 152.501 218.096 152.715 220.27 152.912C222.256 153.091 224.256 153.099 226.249 152.939C226.827 152.939 227.272 152.818 227.272 152.818L227.265 151.239Z" fill="#628AEC"/>
<path d="M227.149 151.273C224.288 151.6 221.393 151.471 218.574 150.89" stroke="#333842" stroke-width="0.163475" stroke-miterlimit="10" stroke-linecap="round"/>
<path d="M221.269 127.213C221.128 126.94 220.956 126.673 220.701 126.503C220.428 126.323 220.088 126.273 219.762 126.288C218.334 126.352 217.204 127.517 216.442 128.725C215.679 129.934 215.092 131.299 214.004 132.227C212.107 133.846 205.716 133.384 203.594 132.911C202.487 133.01 201.221 134.473 201.874 135.996C204.719 137.246 213.299 141.808 216.406 140.329C217.489 139.814 218.296 138.918 218.961 137.902C219.345 137.315 219.682 136.688 219.998 136.071C220.706 134.69 221.386 133.274 221.711 131.756C222.036 130.239 221.98 128.593 221.269 127.213Z" fill="#628AEC"/>
<path d="M222.531 122.074C221.583 121.066 219.958 120.957 218.814 121.675C218.145 122.095 217.805 122.962 217.459 123.65C217.036 124.492 216.675 125.365 216.38 126.26C216.076 127.186 215.843 128.134 215.558 129.067C215.09 130.594 214.48 132.081 214.13 133.639C213.78 135.198 213.703 136.871 214.289 138.357C215.127 140.48 217.919 139.352 219.164 138.171C220.236 137.155 220.75 135.699 221.227 134.3C221.707 132.896 222.186 131.491 222.666 130.087C223.07 128.901 223.534 127.333 223.618 125.814C223.695 124.411 223.448 123.05 222.531 122.074Z" fill="#628AEC"/>
<path d="M214.915 131.556C215.438 128.418 216.937 124.737 218.425 121.925" stroke="#333842" stroke-width="0.163475" stroke-miterlimit="10"/>
<path d="M223.498 128.226C222.885 129.875 222.272 131.524 221.659 133.173C221.219 134.358 220.801 135.872 219.966 136.849C219.135 137.822 218.36 138.886 217.341 139.686C216.349 140.464 215.507 140.697 214.252 140.575" stroke="#333842" stroke-width="0.163475" stroke-miterlimit="10" stroke-linecap="round"/>
<path d="M224.164 128.664C223.613 128.979 223.151 129.449 222.848 130.006" stroke="#333842" stroke-width="0.163475" stroke-miterlimit="10"/>
<path d="M204.952 127.944L204.216 128.343L204.589 127.594L209.026 122.999C209.122 122.9 209.282 122.896 209.382 122.993C209.482 123.09 209.484 123.249 209.388 123.35L204.952 127.944Z" fill="#333842"/>
<path d="M219.315 112.415C219.073 112.22 218.847 112.01 218.653 111.766C217.422 110.221 218.219 108.51 219.205 107.135C220.303 105.603 222.395 104.763 224.239 104.866C225.292 104.925 226.292 105.265 227.039 106.026C227.384 106.378 227.64 106.753 227.748 107.243C227.781 107.39 227.885 108.539 227.648 108.563C229.465 108.383 229.374 112.338 229.357 113.421C229.313 116.186 229.269 118.952 229.225 121.717C229.209 122.713 229.166 123.789 228.548 124.571C227.939 125.343 226.851 125.647 225.887 125.454C224.922 125.26 224.085 124.627 223.491 123.844C222.986 123.178 222.377 122.183 222.361 121.322C222.343 120.357 222.474 119.36 222.472 118.385C222.467 116.695 222.136 114.884 220.94 113.69C220.453 113.204 219.847 112.846 219.315 112.415Z" fill="#333842"/>
</svg>
