<svg width="326" height="217" viewBox="0 0 326 217" fill="none" xmlns="http://www.w3.org/2000/svg">
<path opacity="0.3" d="M314.359 204.262C290.571 201 231.781 198.692 163.024 198.692C109.245 198.692 61.5625 200.104 31.9574 202.28C18.9562 187.728 6.88104 169.17 11.6624 152.676C20.9198 120.74 86.8765 118.9 89.0672 91.2283C90.4038 74.3299 66.3739 67.8917 68.3872 52.8365C71.3763 30.4725 128.77 12.0389 178.419 20.122C230.411 28.587 262.22 64.2304 272.497 75.7462C282.515 86.9702 302.207 109.555 310.782 144.593C314.991 161.793 316.789 183.088 314.359 204.262Z" fill="#9EE9EF"/>
<path d="M213.254 84.5003C213.254 84.5003 214.573 79.5972 210.332 72.1012C206.406 65.161 196.738 59.3486 196.738 59.3486C196.738 59.3486 197.31 67.6839 200.543 73.8143C204.377 81.0827 213.254 84.5003 213.254 84.5003Z" fill="#AFE9ED"/>
<path d="M207.604 61.8069C212.495 71.0715 221.622 74.0286 221.622 74.0286C221.622 74.0286 223.226 68.7558 218.909 60.611C214.913 53.0692 204.665 46.6707 204.665 46.6707C204.665 46.6707 203.175 53.416 207.604 61.8069Z" fill="#AFE9ED"/>
<path d="M215.521 51.0223C220.019 60.4673 228.997 63.7568 228.997 63.7568C228.997 63.7568 230.81 58.5415 226.837 50.2378C223.16 42.5505 213.207 35.7781 213.207 35.7781C213.207 35.7781 211.448 42.4694 215.521 51.0223Z" fill="#AFE9ED"/>
<path d="M223.276 39.5384C227.055 49.7717 236.104 53.907 236.104 53.907C236.104 53.907 238.5 48.5872 235.159 39.5892C232.067 31.2588 222.336 23.4026 222.336 23.4026C222.336 23.4026 219.853 30.2714 223.276 39.5384Z" fill="#AFE9ED"/>
<path d="M241.569 43.7364C241.569 43.7364 245.091 39.3691 244.376 30.2898C243.715 21.8835 236.943 12.3953 236.943 12.3953C236.943 12.3953 232.946 18.1737 233.667 27.5213C234.461 37.8423 241.569 43.7364 241.569 43.7364Z" fill="#AFE9ED"/>
<path d="M236.817 55.4214C236.817 55.4214 240.508 59.0804 250.127 59.6606C259.032 60.1978 270.541 55.5349 270.541 55.5349C270.541 55.5349 265.497 51.2727 255.598 50.6624C244.668 49.9882 236.817 55.4214 236.817 55.4214Z" fill="#AFE9ED"/>
<path d="M249.741 62.5668C239.185 59.8745 230.473 64.9815 230.473 64.9815C230.473 64.9815 233.383 69.9731 242.676 72.3258C251.279 74.5045 263.419 70.9469 263.419 70.9469C263.419 70.9469 259.301 65.0051 249.741 62.5668Z" fill="#AFE9ED"/>
<path d="M240.696 73.712C231.161 71.5252 223.256 75.0001 222.282 75.4544C223.37 74.0559 224.333 72.8726 225.104 72.0286C229.1 67.6546 237.406 54.6672 241.826 46.9169C242.532 47.1245 247.494 48.3701 255.939 45.238C264.401 42.1004 272.913 33.3065 272.913 33.3065C272.913 33.3065 266.328 31.584 256.916 35.0594C248.7 38.0937 243.988 43.7213 242.374 45.947C242.827 45.1378 243.228 44.3999 243.564 43.7542C245.475 40.0878 247.034 35.9035 248.054 32.8657C248.139 33.012 248.188 33.0883 248.188 33.0883C248.188 33.0883 253.69 29.8885 256.506 20.5772C259.115 11.956 255.595 0.231934 255.595 0.231934C255.595 0.231934 249.027 4.68484 246.11 14.2651C243.476 22.9184 246.54 30.0076 247.744 32.3029C244.835 38.7026 238.477 51.9367 232.345 59.6519C228.286 64.7589 211.74 89.4362 203.703 95.1753C198.132 99.1529 193.606 100.493 193.606 100.493L195.417 102.462C195.417 102.462 200.63 100.346 204.613 97.4483C208.3 94.7664 216.789 82.5273 222.211 75.5456C222.536 75.983 225.558 79.7774 234.001 81.7008C242.303 83.593 253.948 80.7826 253.948 80.7826C253.948 80.7826 249.922 75.8288 240.696 73.712Z" fill="#AFE9ED"/>
<path d="M229 83.0587C220.747 81.8017 214.496 86.1048 214.496 86.1048C214.496 86.1048 217.094 89.5481 224.355 90.6421C231.079 91.6557 240.063 88.2525 240.063 88.2525C240.063 88.2525 236.472 84.1976 229 83.0587Z" fill="#AFE9ED"/>
<path d="M154.061 99.7511C154.061 99.7511 150.157 99.4884 145.125 103.817C140.466 107.826 137.52 116.006 137.52 116.006C137.52 116.006 143.736 114.325 147.886 110.962C152.807 106.974 154.061 99.7511 154.061 99.7511Z" fill="#AFE9ED"/>
<path d="M137.75 107.422C144.022 102.337 144.89 94.9938 144.89 94.9938C144.89 94.9938 140.664 94.5711 135.153 99.0551C130.049 103.206 126.747 111.912 126.747 111.912C126.747 111.912 132.07 112.028 137.75 107.422Z" fill="#AFE9ED"/>
<path d="M128.411 103.053C134.877 98.2372 136.019 90.9573 136.019 90.9573C136.019 90.9573 131.805 90.3679 126.122 94.6151C120.861 98.5467 117.232 107.087 117.232 107.087C117.232 107.087 122.555 107.414 128.411 103.053Z" fill="#AFE9ED"/>
<path d="M118.567 98.9105C125.738 94.52 127.508 87.0596 127.508 87.0596C127.508 87.0596 123.127 86.045 116.825 89.9185C110.991 93.5043 106.509 102.038 106.509 102.038C106.509 102.038 112.074 102.886 118.567 98.9105Z" fill="#AFE9ED"/>
<path d="M119 84.4513C119 84.4513 115.171 82.4433 108.414 84.3438C102.157 86.103 95.9985 92.644 95.9985 92.644C95.9985 92.644 100.966 94.7999 107.925 92.8549C115.609 90.7078 119 84.4513 119 84.4513Z" fill="#AFE9ED"/>
<path d="M128.546 86.293C128.546 86.293 130.759 82.9544 129.757 75.5954C128.829 68.7827 123.58 60.7798 123.58 60.7798C123.58 60.7798 121.113 65.232 122.135 72.8071C123.262 81.1717 128.546 86.293 128.546 86.293Z" fill="#AFE9ED"/>
<path d="M132.012 75.4516C131.558 83.8362 136.725 89.6571 136.725 89.6571C136.725 89.6571 140.062 86.7093 140.449 79.3317C140.807 72.5012 136.299 63.8555 136.299 63.8555C136.299 63.8555 132.424 67.8589 132.012 75.4516Z" fill="#AFE9ED"/>
<path d="M141.793 80.6204C141.568 88.157 145.38 93.6129 145.869 94.2811C144.649 93.668 143.61 93.1176 142.856 92.661C138.951 90.2953 127.888 85.961 121.366 83.7807C121.417 83.2159 121.616 79.278 117.983 73.3622C114.343 67.4346 106.419 62.3169 106.419 62.3169C106.419 62.3169 106.103 67.5531 110.141 74.1486C113.666 79.9052 118.626 82.6245 120.551 83.5116C119.871 83.2905 119.253 83.098 118.715 82.9402C115.657 82.0452 112.26 81.4935 109.81 81.1774C109.908 81.0911 109.958 81.0426 109.958 81.0426C109.958 81.0426 106.715 77.3625 99.2534 76.6278C92.3448 75.947 84.0083 80.3646 84.0083 80.3646C84.0083 80.3646 88.3586 84.6628 96.0387 85.4331C102.976 86.1284 107.876 82.7497 109.431 81.496C114.705 82.7361 125.663 85.5601 132.415 89.041C136.884 91.3445 158.019 100.157 163.562 105.373C167.404 108.989 169.095 112.21 169.095 112.21L170.312 110.546C170.312 110.546 167.932 106.921 165.144 104.344C162.564 101.959 152.039 97.3746 145.949 94.3211C146.231 94.0101 148.647 91.1566 148.836 84.4852C149.023 77.9252 145.153 69.5421 145.153 69.5421C145.153 69.5421 142.011 73.3282 141.793 80.6204Z" fill="#AFE9ED"/>
<path d="M150.612 88.0631C150.898 94.4908 155.088 98.5723 155.088 98.5723C155.088 98.5723 157.302 96.092 157.041 90.4382C156.8 85.2029 152.881 78.9207 152.881 78.9207C152.881 78.9207 150.353 82.2432 150.612 88.0631Z" fill="#AFE9ED"/>
<path d="M189.342 42.947C189.45 35.1615 184.835 27.2025 179.827 22.9239C176.806 20.3433 172.16 13.3572 172.16 13.3572C172.16 13.3572 171.546 14.7745 168.48 18.2167C163.145 24.2048 158.612 24.9311 157.405 36.5102C156.664 43.6164 159.339 53.2762 171.983 60.5688C176.072 62.9265 178.022 62.5165 178.022 62.5165C178.022 62.5165 189.217 51.9947 189.342 42.947Z" fill="#AFE9ED"/>
<path d="M171.469 40.1319C169.983 28.8887 172.16 13.3572 172.16 13.3572C172.16 13.3572 171.546 14.7745 168.48 18.2167C163.145 24.2048 158.612 24.9311 157.405 36.5102C156.664 43.6164 159.339 53.2762 171.983 60.5688C176.072 62.9265 178.022 62.5165 178.022 62.5165C178.022 62.5165 173.042 52.0404 171.469 40.1319Z" fill="#AFE9ED"/>
<path d="M181.171 83.2998C181.207 82.761 181.246 81.9745 181.264 80.9746C181.3 78.9753 181.252 76.1186 180.886 72.7173C180.519 69.3195 179.83 65.371 178.567 61.2833C177.937 59.2408 177.161 57.1671 176.222 55.1276C175.989 54.6172 175.743 54.1102 175.488 53.6057C175.23 53.1079 174.971 52.6084 174.711 52.1081C174.216 51.1235 173.758 50.0993 173.365 49.0565C172.57 46.9711 172.003 44.798 171.636 42.6236C171.266 40.4493 171.088 38.2756 171.026 36.1683C170.962 34.0603 171.011 32.0171 171.099 30.0816C171.188 28.1456 171.317 26.3157 171.44 24.627C171.566 22.938 171.682 21.3894 171.785 20.0171C171.883 18.6442 171.961 17.4466 172.016 16.4599C172.072 15.4732 172.108 14.6973 172.129 14.1688C172.15 13.6394 172.16 13.3574 172.16 13.3574C172.16 13.3574 172.144 13.6391 172.112 14.1676C172.079 14.696 172.027 15.4705 171.95 16.4552C171.874 17.4402 171.771 18.6355 171.643 20.0054C171.511 21.3752 171.363 22.9211 171.2 24.6069C171.04 26.2934 170.873 28.122 170.742 30.0615C170.613 32.0008 170.519 34.0518 170.538 36.178C170.556 38.3031 170.689 40.505 171.017 42.722C171.343 44.9388 171.874 47.1695 172.642 49.3224C173.023 50.4013 173.465 51.4522 173.959 52.4874C174.207 52.9905 174.455 53.4927 174.702 53.9937C174.942 54.4934 175.174 54.9949 175.393 55.4997C176.274 57.5174 176.996 59.5647 177.574 61.5801C178.735 65.6124 179.336 69.5006 179.631 72.8407C179.925 76.1843 179.918 78.9856 179.845 80.935C179.808 81.9102 179.755 82.6736 179.711 83.1906C179.689 83.4495 179.67 83.6464 179.656 83.7774C179.642 83.9054 179.634 83.9713 179.634 83.9713L181.106 84.1362C181.106 84.1362 181.112 84.0619 181.126 83.9177C181.138 83.776 181.154 83.5691 181.171 83.2998Z" fill="#92D9DE"/>
<path d="M176.933 53.9266C177.276 53.4397 177.752 52.7375 178.282 51.8711C178.814 51.0064 179.402 49.9775 179.974 48.8467C180.264 48.2828 180.541 47.6902 180.818 47.085C181.086 46.4765 181.351 45.8557 181.59 45.2243C181.712 44.9097 181.831 44.5939 181.94 44.2757C182.055 43.9599 182.158 43.6413 182.259 43.325C182.462 42.6932 182.637 42.0632 182.792 41.4505C182.944 40.8373 183.071 40.2401 183.174 39.6702C183.231 39.3874 183.265 39.1074 183.308 38.8387C183.352 38.5706 183.382 38.3091 183.408 38.0584C183.472 37.558 183.494 37.0957 183.524 36.688C183.54 36.279 183.546 35.9226 183.552 35.6291C183.54 35.0428 183.533 34.7073 183.533 34.7073C183.533 34.7073 183.524 35.0423 183.508 35.6283C183.488 35.9205 183.464 36.275 183.428 36.6808C183.378 37.0856 183.335 37.5429 183.247 38.0365C183.209 38.2842 183.168 38.5414 183.111 38.8053C183.055 39.0696 183.009 39.3446 182.938 39.6224C182.81 40.1812 182.655 40.7654 182.476 41.3642C182.294 41.9615 182.091 42.5743 181.86 43.1878C181.746 43.4949 181.629 43.8035 181.501 44.1093C181.379 44.4172 181.247 44.7227 181.112 45.0268C180.846 45.6364 180.555 46.2351 180.263 46.8205C179.963 47.4022 179.662 47.9712 179.351 48.511C178.735 49.5943 178.11 50.575 177.548 51.3959C176.989 52.2183 176.492 52.8806 176.137 53.3359C175.959 53.5633 175.817 53.7391 175.72 53.8564C175.623 53.9723 175.572 54.0338 175.572 54.0338L176.375 54.6885C176.375 54.6885 176.427 54.6194 176.526 54.4888C176.623 54.3595 176.761 54.1701 176.933 53.9266Z" fill="#92D9DE"/>
<path d="M172.086 44.8103C172.049 44.7964 171.993 44.7754 171.921 44.7481C171.773 44.6917 171.556 44.601 171.282 44.4793C171.01 44.3539 170.679 44.2002 170.31 44.0015C170.122 43.907 169.931 43.7924 169.725 43.6792C169.524 43.5562 169.307 43.436 169.092 43.2932C168.653 43.0207 168.2 42.6917 167.729 42.3326C167.615 42.2388 167.499 42.1437 167.381 42.0476C167.323 41.9995 167.264 41.9509 167.204 41.902C167.147 41.8508 167.09 41.7991 167.032 41.7473C166.917 41.6433 166.8 41.5385 166.682 41.4323C166.57 41.3205 166.456 41.2079 166.341 41.0945C166.284 41.0375 166.227 40.98 166.169 40.9225C166.115 40.8624 166.06 40.8019 166.005 40.7413C165.895 40.6198 165.782 40.4989 165.673 40.3736C165.468 40.1128 165.242 39.862 165.053 39.5806C164.644 39.0391 164.309 38.4344 163.994 37.8217C163.712 37.194 163.448 36.5523 163.289 35.8901C163.247 35.7249 163.197 35.5625 163.163 35.3972C163.134 35.2311 163.104 35.0657 163.074 34.9014C163.003 34.5738 162.987 34.2431 162.952 33.9197C162.944 33.8389 162.936 33.7583 162.929 33.6778C162.922 33.5974 162.925 33.5173 162.922 33.4372C162.919 33.2772 162.917 33.1186 162.914 32.9618C162.898 32.6479 162.934 32.3419 162.948 32.0431C162.959 31.8938 162.963 31.7461 162.979 31.6014C162.999 31.4572 163.019 31.3151 163.038 31.1756C163.058 31.0359 163.077 30.8985 163.096 30.7639C163.105 30.6964 163.114 30.6293 163.124 30.5636C163.138 30.4982 163.151 30.4335 163.165 30.3696C163.277 29.8581 163.366 29.3848 163.498 28.979C163.617 28.5698 163.713 28.2096 163.827 27.9246C164.036 27.3483 164.155 27.0188 164.155 27.0188C164.155 27.0188 164.025 27.344 163.797 27.9137C163.674 28.1956 163.566 28.5526 163.433 28.9591C163.287 29.3627 163.181 29.8344 163.052 30.3461C163.036 30.4097 163.02 30.4748 163.004 30.5401C162.992 30.6063 162.981 30.6732 162.969 30.7407C162.945 30.8762 162.922 31.0141 162.897 31.1543C162.873 31.2949 162.848 31.4376 162.823 31.5826C162.803 31.7281 162.793 31.8774 162.777 32.0281C162.752 32.3299 162.706 32.6393 162.712 32.9584C162.71 33.1179 162.707 33.2793 162.704 33.4419C162.704 33.5234 162.699 33.6052 162.703 33.6874C162.708 33.7692 162.714 33.8516 162.719 33.9346C162.743 34.2654 162.749 34.6042 162.811 34.9411C162.835 35.1106 162.86 35.2812 162.885 35.4523C162.914 35.6229 162.96 35.7911 162.997 35.9622C163.139 36.648 163.388 37.3177 163.659 37.9763C163.962 38.6195 164.289 39.2575 164.694 39.832C164.79 39.979 164.887 40.1242 164.996 40.2609C165.101 40.3995 165.205 40.5375 165.309 40.6752C165.418 40.8083 165.53 40.937 165.64 41.0668C165.694 41.1317 165.749 41.196 165.804 41.2605C165.862 41.3216 165.919 41.383 165.976 41.4439C166.091 41.5657 166.205 41.6861 166.318 41.8056C166.436 41.9196 166.553 42.0324 166.669 42.1438C166.727 42.1996 166.785 42.2548 166.842 42.31C166.902 42.3629 166.961 42.4147 167.02 42.4667C167.139 42.5701 167.255 42.6727 167.371 42.7737C167.845 43.1614 168.304 43.5172 168.748 43.8142C168.966 43.9695 169.187 44.1012 169.39 44.2356C169.6 44.3599 169.795 44.4852 169.986 44.5896C170.361 44.8083 170.701 44.9799 170.981 45.1202C171.263 45.2572 171.488 45.3597 171.645 45.4258C171.726 45.4589 171.787 45.4847 171.828 45.5018C171.869 45.5178 171.89 45.5262 171.89 45.5262L172.145 44.8315C172.145 44.8315 172.125 44.8246 172.086 44.8103Z" fill="#92D9DE"/>
<path d="M210.36 58.3704C215.526 50.6137 216.056 39.6146 213.8 32.06C212.439 27.5035 212.307 17.4624 212.307 17.4624C212.307 17.4624 210.769 18.4885 205.45 19.9571C196.197 22.512 191.169 20.2981 182.434 31.1549C177.073 37.8178 173.487 49.2666 181.462 64.8112C184.041 69.8376 186.269 70.6923 186.269 70.6923C186.269 70.6923 204.358 67.3857 210.36 58.3704Z" fill="#92D9DE"/>
<path d="M194.221 43.9313C200.03 31.6626 212.307 17.4624 212.307 17.4624C212.307 17.4624 210.77 18.4885 205.45 19.9571C196.197 22.512 191.169 20.2981 182.434 31.1549C177.073 37.8178 173.488 49.2666 181.462 64.8112C184.042 69.8376 186.269 70.6923 186.269 70.6923C186.269 70.6923 188.067 56.9251 194.221 43.9313Z" fill="#92D9DE"/>
<path d="M175.935 93.6321C176.321 93.1133 176.871 92.3483 177.539 91.3547C178.874 89.3682 180.681 86.4645 182.523 82.8077C184.36 79.1532 186.233 74.7363 187.618 69.806C188.311 67.3439 188.878 64.7545 189.259 62.0945C189.356 61.4298 189.438 60.7601 189.509 60.0876C189.573 59.4194 189.637 58.7489 189.701 58.0774C189.842 56.7655 190.048 55.4386 190.33 54.1348C190.886 51.5223 191.727 48.9689 192.771 46.5447C193.811 44.1183 195.044 41.8173 196.35 39.6583C197.655 37.4976 199.031 35.4755 200.377 33.5866C201.724 31.6981 203.042 29.942 204.263 28.3245C205.487 26.7083 206.609 25.2267 207.604 23.9136C208.595 22.5974 209.451 21.444 210.147 20.4879C210.844 19.5321 211.384 18.7754 211.749 18.2577C212.113 17.7386 212.307 17.4624 212.307 17.4624C212.307 17.4624 212.108 17.7348 211.733 18.2455C211.356 18.7553 210.801 19.5002 210.084 20.4404C209.367 21.381 208.487 22.5156 207.469 23.8098C206.447 25.1013 205.293 26.5589 204.035 28.1484C202.779 29.74 201.423 31.4696 200.031 33.3344C198.642 35.2001 197.216 37.2014 195.854 39.3513C194.491 41.4992 193.194 43.799 192.085 46.2415C190.972 48.6816 190.057 51.2691 189.431 53.9325C189.113 55.265 188.875 56.6082 188.699 57.97C188.622 58.637 188.545 59.3028 188.468 59.9671C188.384 60.625 188.292 61.2801 188.184 61.9296C187.759 64.5303 187.155 67.0577 186.427 69.4594C184.975 74.2676 183.053 78.5664 181.181 82.1165C179.305 85.6689 177.478 88.4806 176.139 90.393C175.468 91.3494 174.918 92.0821 174.538 92.5734C174.348 92.8194 174.201 93.0048 174.102 93.1277C174.004 93.2469 173.954 93.3085 173.954 93.3085L175.326 94.43C175.326 94.43 175.381 94.3597 175.488 94.2234C175.592 94.0892 175.743 93.8914 175.935 93.6321Z" fill="#70C6CC"/>
<g opacity="0.5">
<path d="M190.754 61.3485C191.415 61.0819 192.349 60.6848 193.445 60.1581C194.542 59.6345 195.801 58.982 197.111 58.2168C197.768 57.8379 198.432 57.4227 199.103 56.9937C199.768 56.5563 200.438 56.1042 201.089 55.625C201.416 55.388 201.74 55.1473 202.056 54.8984C202.376 54.6555 202.687 54.4024 202.994 54.1496C203.609 53.6465 204.194 53.1271 204.747 52.6113C205.299 52.0938 205.815 51.5761 206.288 51.0696C206.53 50.8229 206.745 50.5629 206.963 50.3207C207.181 50.0799 207.381 49.8363 207.571 49.6014C207.96 49.1399 208.282 48.6891 208.577 48.2987C208.859 47.8982 209.097 47.5439 209.293 47.2527C209.662 46.6554 209.873 46.3135 209.873 46.3135C209.873 46.3135 209.646 46.6443 209.249 47.2229C209.039 47.5036 208.786 47.845 208.486 48.2295C208.173 48.6041 207.832 49.0357 207.423 49.475C207.224 49.6991 207.015 49.9309 206.786 50.159C206.559 50.3889 206.334 50.6353 206.082 50.8683C205.591 51.3473 205.055 51.8334 204.486 52.3191C203.915 52.8018 203.313 53.2858 202.683 53.7527C202.368 53.9872 202.051 54.2218 201.723 54.4458C201.4 54.6761 201.069 54.8974 200.736 55.1156C200.072 55.5557 199.391 55.9688 198.717 56.3675C198.037 56.7572 197.365 57.1337 196.702 57.4743C195.379 58.1633 194.114 58.7435 193.016 59.204C191.919 59.6673 190.989 60.0104 190.337 60.2375C190.01 60.3508 189.754 60.4354 189.58 60.4903C189.407 60.5437 189.315 60.5721 189.315 60.5721L189.697 61.752C189.697 61.752 189.795 61.7167 189.979 61.6495C190.161 61.5823 190.423 61.4817 190.754 61.3485Z" fill="#70C6CC"/>
</g>
<g opacity="0.5">
<path d="M191.802 49.035C191.774 48.9969 191.732 48.9396 191.677 48.8653C191.565 48.7126 191.406 48.4804 191.209 48.1803C191.017 47.8772 190.784 47.5075 190.542 47.0679C190.415 46.8514 190.297 46.6116 190.163 46.3639C190.041 46.11 189.901 45.8484 189.778 45.565C189.513 45.0058 189.272 44.381 189.032 43.7142C188.978 43.5457 188.923 43.3749 188.867 43.2018C188.839 43.1152 188.812 43.028 188.784 42.9405C188.759 42.8518 188.735 42.7626 188.711 42.6729C188.663 42.4935 188.613 42.3122 188.564 42.129C188.523 41.9434 188.482 41.7566 188.441 41.5681C188.42 41.4736 188.4 41.3786 188.379 41.2835C188.364 41.1875 188.348 41.0909 188.332 40.9943C188.3 40.801 188.265 40.6062 188.237 40.4092C188.201 40.0142 188.136 39.6151 188.129 39.2095C188.069 38.399 188.126 37.5739 188.207 36.7533C188.331 35.9389 188.483 35.1225 188.752 34.353C188.818 34.1601 188.873 33.9639 188.947 33.7762C189.025 33.5899 189.102 33.4044 189.179 33.2199C189.32 32.8443 189.519 32.5012 189.694 32.1535C189.738 32.0669 189.783 31.9808 189.827 31.895C189.873 31.8099 189.928 31.7309 189.977 31.6487C190.078 31.4861 190.179 31.3251 190.278 31.1658C190.465 30.8395 190.7 30.5551 190.908 30.2639C191.017 30.121 191.117 29.9752 191.226 29.8397C191.34 29.7081 191.452 29.578 191.563 29.4505C191.673 29.3226 191.782 29.1971 191.888 29.0737C191.941 29.0119 191.994 28.9506 192.046 28.8905C192.103 28.8339 192.159 28.7776 192.214 28.7225C192.658 28.2806 193.056 27.8629 193.452 27.5409C193.838 27.2068 194.168 26.907 194.468 26.6945C195.052 26.2505 195.386 25.9968 195.386 25.9968C195.386 25.9968 195.044 26.2395 194.445 26.664C194.137 26.8673 193.797 27.1562 193.399 27.4784C192.99 27.7891 192.578 28.1947 192.115 28.6253C192.058 28.6792 191.999 28.7339 191.941 28.7891C191.886 28.8483 191.831 28.908 191.776 28.9682C191.664 29.0892 191.55 29.2123 191.435 29.3374C191.319 29.4628 191.201 29.5903 191.082 29.7198C190.967 29.8529 190.861 29.997 190.747 30.1382C190.526 30.4253 190.278 30.7065 190.077 31.0313C189.971 31.19 189.864 31.3505 189.755 31.5122C189.702 31.594 189.644 31.6732 189.594 31.7582C189.546 31.8439 189.498 31.9301 189.45 32.0168C189.259 32.3654 189.046 32.7098 188.888 33.0884C188.803 33.2749 188.717 33.4625 188.631 33.6507C188.549 33.8408 188.486 34.0399 188.412 34.2357C188.11 35.0175 187.925 35.8527 187.769 36.6905C187.657 37.5345 187.571 38.3881 187.605 39.2287C187.606 39.4388 187.609 39.6481 187.629 39.8557C187.645 40.0632 187.66 40.27 187.675 40.4756C187.698 40.6801 187.728 40.8825 187.753 41.0843C187.766 41.1851 187.78 41.2855 187.793 41.3858C187.811 41.4847 187.829 41.5838 187.847 41.6819C187.883 41.8789 187.919 42.074 187.955 42.2673C188 42.4589 188.044 42.6483 188.088 42.8358C188.11 42.9294 188.133 43.0226 188.155 43.1153C188.18 43.2071 188.206 43.298 188.232 43.3885C188.284 43.5693 188.334 43.7482 188.385 43.9248C188.61 44.6227 188.84 45.2783 189.094 45.8657C189.212 46.1635 189.348 46.4388 189.465 46.7063C189.595 46.9674 189.71 47.2199 189.834 47.449C190.07 47.913 190.3 48.306 190.49 48.629C190.685 48.9498 190.844 49.1989 190.959 49.3674C191.019 49.453 191.064 49.5186 191.094 49.5629C191.124 49.6053 191.14 49.6275 191.14 49.6275L191.848 49.0948C191.847 49.0947 191.832 49.0745 191.802 49.035Z" fill="#70C6CC"/>
</g>
<path d="M172.404 55.8216C169.191 47.0735 160.624 40.1543 153.194 37.5172C148.712 35.9268 140.528 30.1082 140.528 30.1082C140.528 30.1082 140.449 31.9552 138.495 37.1162C135.097 46.0937 130.342 48.8465 133.952 62.3054C136.167 70.5651 143.294 80.2163 160.549 82.9518C166.13 83.8356 168.134 82.5421 168.134 82.5421C168.134 82.5421 176.14 65.9872 172.404 55.8216Z" fill="#92D9DE"/>
<path d="M151.223 60.3299C144.746 48.4002 140.528 30.1084 140.528 30.1084C140.528 30.1084 140.449 31.9554 138.496 37.1164C135.098 46.0939 130.343 48.8467 133.953 62.3056C136.168 70.5654 143.295 80.2165 160.55 82.952C166.13 83.8359 168.134 82.5423 168.134 82.5423C168.134 82.5423 158.081 72.9659 151.223 60.3299Z" fill="#92D9DE"/>
<path d="M180.555 104.422C180.364 103.805 180.071 102.909 179.663 101.783C178.847 99.5333 177.569 96.3616 175.704 92.7163C173.838 89.0761 171.377 84.9577 168.214 80.9302C166.636 78.917 164.88 76.9319 162.958 75.0543C162.478 74.5836 161.986 74.1225 161.485 73.6676C160.983 73.2219 160.48 72.7744 159.976 72.3263C159 71.4383 158.05 70.4894 157.164 69.4924C155.383 67.5018 153.818 65.3159 152.477 63.0428C151.132 60.7711 150.002 58.418 149.03 56.0893C148.055 53.7607 147.235 51.4561 146.504 49.2551C145.775 47.053 145.135 44.9528 144.55 43.0124C143.967 41.0706 143.434 39.2902 142.96 37.7124C142.483 36.1356 142.057 34.7636 141.696 33.6373C141.336 32.5107 141.043 31.6281 140.841 31.0282C140.637 30.4278 140.528 30.1082 140.528 30.1082C140.528 30.1082 140.63 30.4301 140.821 31.0342C141.01 31.6391 141.284 32.5269 141.62 33.6603C141.957 34.794 142.353 36.1743 142.797 37.76C143.236 39.3475 143.732 41.1388 144.273 43.0926C144.817 45.0461 145.413 47.1615 146.097 49.3853C146.783 51.6083 147.557 53.9406 148.489 56.3089C149.419 58.6766 150.51 61.0806 151.827 63.4179C153.14 65.756 154.689 68.0217 156.47 70.0992C157.358 71.1417 158.302 72.127 159.297 73.0725C159.79 73.5285 160.282 73.9836 160.773 74.4379C161.255 74.8937 161.729 75.3547 162.19 75.8253C164.039 77.7032 165.723 79.6821 167.232 81.6872C170.257 85.6965 172.593 89.7853 174.354 93.3915C176.115 97.0029 177.307 100.137 178.06 102.347C178.436 103.453 178.704 104.329 178.876 104.925C178.962 105.224 179.025 105.452 179.066 105.605C179.104 105.754 179.125 105.831 179.125 105.831L180.84 105.385C180.84 105.385 180.815 105.299 180.768 105.132C180.722 104.969 180.651 104.731 180.555 104.422Z" fill="#70C6CC"/>
<g opacity="0.5">
<path d="M163.238 73.4077C163.413 72.7165 163.643 71.728 163.865 70.5324C164.09 69.338 164.306 67.9364 164.461 66.4275C164.543 65.6731 164.6 64.892 164.649 64.0973C164.689 63.3023 164.719 62.4949 164.716 61.6866C164.718 61.2826 164.715 60.8791 164.7 60.4767C164.694 60.0746 164.673 59.6743 164.649 59.2775C164.606 58.4841 164.532 57.7049 164.442 56.9541C164.35 56.2035 164.237 55.4813 164.107 54.8007C164.05 54.4599 163.967 54.1328 163.9 53.8139C163.835 53.4953 163.756 53.1903 163.678 52.8988C163.536 52.3121 163.362 51.7862 163.221 51.3176C163.064 50.8536 162.918 50.4526 162.799 50.1218C162.534 49.4717 162.383 49.0999 162.383 49.0999C162.383 49.0999 162.516 49.4781 162.749 50.1401C162.851 50.4752 162.977 50.8815 163.111 51.3504C163.229 51.8242 163.376 52.354 163.489 52.9432C163.553 53.2363 163.617 53.5414 163.666 53.8611C163.717 54.1801 163.783 54.5072 163.823 54.8483C163.919 55.5276 163.996 56.247 164.052 56.9931C164.105 57.7385 164.14 58.5104 164.145 59.2948C164.149 59.6869 164.151 60.0819 164.138 60.4787C164.133 60.8752 164.117 61.2731 164.096 61.6708C164.06 62.4662 163.992 63.2596 163.916 64.0392C163.829 64.8179 163.736 65.583 163.62 66.3193C163.396 67.7937 163.117 69.1574 162.841 70.3156C162.568 71.4743 162.296 72.4277 162.094 73.0884C161.993 73.4186 161.91 73.6759 161.852 73.8486C161.793 74.0197 161.761 74.1104 161.761 74.1104L162.939 74.4983C162.939 74.4983 162.969 74.3985 163.023 74.2102C163.076 74.0243 163.15 73.7533 163.238 73.4077Z" fill="#70C6CC"/>
</g>
<g opacity="0.5">
<path d="M153.916 65.2942C153.868 65.2947 153.797 65.2948 153.704 65.2954C153.515 65.2956 153.234 65.2871 152.876 65.2685C152.517 65.245 152.081 65.215 151.583 65.1511C151.334 65.1257 151.071 65.0796 150.792 65.0413C150.515 64.9897 150.221 64.9483 149.919 64.8808C149.312 64.7644 148.665 64.5905 147.985 64.3909C147.817 64.3351 147.647 64.2784 147.474 64.2213C147.388 64.1926 147.301 64.1636 147.214 64.1344C147.128 64.1018 147.042 64.0686 146.955 64.0353C146.782 63.9684 146.606 63.9014 146.429 63.833C146.255 63.7563 146.08 63.6791 145.904 63.6014C145.815 63.5622 145.726 63.5227 145.638 63.4827C145.551 63.439 145.463 63.3949 145.376 63.3508C145.202 63.2618 145.024 63.1752 144.848 63.082C144.508 62.878 144.147 62.6946 143.816 62.4608C143.126 62.0311 142.493 61.4984 141.879 60.9487C141.294 60.368 140.725 59.7636 140.263 59.092C140.146 58.9251 140.02 58.765 139.912 58.5946C139.808 58.4215 139.704 58.2495 139.6 58.0787C139.38 57.7431 139.22 57.3802 139.043 57.0337C138.999 56.9469 138.956 56.8602 138.913 56.7734C138.871 56.6863 138.84 56.5957 138.802 56.5073C138.731 56.3297 138.66 56.1533 138.59 55.9793C138.437 55.6355 138.346 55.2783 138.234 54.9381C138.183 54.7666 138.124 54.5994 138.079 54.4314C138.04 54.2616 138.002 54.0943 137.964 53.93C137.925 53.7654 137.888 53.6038 137.851 53.4452C137.833 53.3657 137.815 53.2869 137.797 53.2094C137.785 53.1303 137.772 53.0519 137.76 52.9749C137.666 52.3554 137.563 51.7881 137.537 51.2779C137.495 50.7696 137.448 50.3259 137.453 49.9585C137.439 49.2251 137.432 48.8057 137.432 48.8057C137.432 48.8057 137.426 49.2249 137.415 49.9593C137.398 50.3273 137.43 50.7724 137.455 51.2838C137.465 51.7974 137.549 52.3698 137.624 52.997C137.633 53.0751 137.643 53.1546 137.653 53.2346C137.668 53.3135 137.684 53.3933 137.7 53.4738C137.732 53.6353 137.764 53.7997 137.797 53.9668C137.829 54.1343 137.863 54.3044 137.897 54.4771C137.937 54.6484 137.99 54.8195 138.037 54.9948C138.138 55.3428 138.219 55.7084 138.363 56.0624C138.428 56.2418 138.494 56.4233 138.561 56.6062C138.596 56.6974 138.625 56.791 138.665 56.8812C138.706 56.9704 138.747 57.0603 138.788 57.1508C138.957 57.51 139.109 57.8859 139.322 58.2363C139.422 58.4153 139.523 58.5952 139.624 58.7757C139.729 58.9541 139.853 59.1224 139.967 59.2979C140.42 60.0034 140.985 60.6454 141.569 61.2655C142.184 61.8543 142.823 62.4274 143.522 62.8962C143.692 63.0193 143.863 63.14 144.042 63.2463C144.219 63.3564 144.395 63.4658 144.57 63.5752C144.749 63.6772 144.929 63.773 145.107 63.8712C145.196 63.9203 145.285 63.9688 145.374 64.0174C145.465 64.061 145.555 64.105 145.645 64.1485C145.825 64.2355 146.004 64.3212 146.181 64.4066C146.363 64.4831 146.542 64.5593 146.719 64.6341C146.808 64.6718 146.896 64.7087 146.984 64.7457C147.073 64.7793 147.162 64.8117 147.25 64.8446C147.426 64.9094 147.601 64.9741 147.773 65.0377C148.469 65.2678 149.134 65.4691 149.758 65.6106C150.069 65.6908 150.371 65.7437 150.656 65.8068C150.944 65.8559 151.215 65.9124 151.474 65.9473C151.987 66.0307 152.44 66.0771 152.813 66.1139C153.187 66.1461 153.482 66.1645 153.686 66.171C153.79 66.1736 153.87 66.1762 153.924 66.1777C153.976 66.1782 154.003 66.1785 154.003 66.1785L153.99 65.2928C153.99 65.2928 153.965 65.2935 153.916 65.2942Z" fill="#70C6CC"/>
</g>
<path opacity="0.3" d="M325.649 207.488C325.649 208.673 321.317 209.802 313.466 210.833C289.123 214.033 230.935 216.284 163.024 216.284C115.354 216.284 72.4723 215.174 42.7274 213.407C16.4301 211.844 0.39917 209.767 0.39917 207.488C0.39917 205.539 12.1194 203.738 31.9574 202.279C61.5625 200.104 109.245 198.692 163.024 198.692C231.78 198.692 290.571 201 314.359 204.261C321.645 205.261 325.649 206.348 325.649 207.488Z" fill="#87C7CC"/>
<path d="M242.613 57.6584H138.465V201.399H242.613V57.6584Z" fill="white"/>
<path opacity="0.3" d="M235.841 64.3445H145.236V194.713H235.841V64.3445Z" fill="#61D0D8"/>
<path d="M204.478 74.1711H150.557V76.9701H204.478V74.1711Z" fill="#61D0D8"/>
<path d="M204.478 83.884H150.557V86.683H204.478V83.884Z" fill="#61D0D8"/>
<path d="M204.478 93.5972H150.557V96.3962H204.478V93.5972Z" fill="#61D0D8"/>
<path d="M204.478 103.31H150.557V106.109H204.478V103.31Z" fill="#61D0D8"/>
<path d="M204.478 113.023H150.557V115.822H204.478V113.023Z" fill="#61D0D8"/>
<path d="M204.478 122.736H150.557V125.535H204.478V122.736Z" fill="#61D0D8"/>
<path d="M204.478 132.449H150.557V135.248H204.478V132.449Z" fill="#61D0D8"/>
<path d="M204.478 140.797H150.557V176.213H204.478V140.797Z" fill="#61D0D8"/>
<path d="M229.946 142.385H212.17V154.061H229.946V142.385Z" fill="#61D0D8"/>
<path d="M229.946 162.949H212.17V174.624H229.946V162.949Z" fill="#61D0D8"/>
<path d="M204.478 181.837H150.557V184.636H204.478V181.837Z" fill="#61D0D8"/>
<path d="M217.255 73.1916L222.918 78.0898L229.597 68.4334L228.291 67.9436L222.555 74.591L218.272 72.2819L217.255 73.1916Z" fill="#62D61E"/>
<path d="M217.255 83.338L222.918 88.236L229.597 78.5797L228.291 78.0898L222.555 84.7374L218.272 82.4283L217.255 83.338Z" fill="#DB4916"/>
<path d="M217.255 93.1949L222.918 98.093L229.597 88.4366L228.291 87.9468L222.555 94.5944L218.272 92.2852L217.255 93.1949Z" fill="#62D61E"/>
<path d="M217.255 103.052L222.918 107.95L229.597 98.2938L228.291 97.804L222.555 104.451L218.272 102.142L217.255 103.052Z" fill="#62D61E"/>
<path d="M217.255 113.198L222.918 118.096L229.597 108.44L228.291 107.95L222.555 114.597L218.272 112.288L217.255 113.198Z" fill="#DB4916"/>
<path d="M217.255 122.911L222.918 127.81L229.597 118.153L228.291 117.663L222.555 124.311L218.272 122.002L217.255 122.911Z" fill="#62D61E"/>
<path d="M217.255 132.424L222.918 137.322L229.597 127.666L228.291 127.176L222.555 133.824L218.272 131.515L217.255 132.424Z" fill="#62D61E"/>
<path d="M217.255 181.511L222.918 186.409L229.597 176.753L228.291 176.263L222.555 182.91L218.272 180.601L217.255 181.511Z" fill="#62D61E"/>
<path d="M267.412 147.406C267.412 147.406 265.176 147.549 264.549 152.007C263.921 156.465 262.763 162.113 259.472 163.02C256.181 163.926 251.648 163.577 251.648 163.577L252.555 165.53C252.555 165.53 260.186 166.436 263.378 164.972C266.571 163.508 267.601 157.395 267.601 157.395L267.412 147.406Z" fill="#AFE9ED"/>
<path d="M266.909 164.513H255.404L251.3 153.633H235.042L239.943 166.244H256.057L256.05 166.225H266.909V164.513Z" fill="#43405A"/>
<path d="M285.865 180.698H257.535V184.894H285.865V180.698Z" fill="#5CC4CC"/>
<path d="M285.845 180.698L289.49 150.353H287.117L283.218 180.698H285.845Z" fill="#5CC4CC"/>
<path d="M287.117 150.353H271.653L267.379 180.698H283.218L287.117 150.353Z" fill="#61D0D8"/>
<path d="M278.467 184.894L274.504 208.651H275.839L279.992 184.894H278.467Z" fill="#7C7C7B"/>
<path d="M285.898 184.894L289.861 208.651H288.526L284.373 184.894H285.898Z" fill="#545454"/>
<path d="M257.535 184.894L253.571 208.651H254.907L259.06 184.894H257.535Z" fill="#7C7C7B"/>
<path d="M264.966 184.894L268.929 208.651H267.594L263.44 184.894H264.966Z" fill="#545454"/>
<path d="M254.176 201.693L252.456 207.746H249.692C249.692 207.746 249.406 207.861 249.406 208.449C249.406 209.037 249.81 208.922 251.048 208.922C252.286 208.922 252.977 208.922 252.977 208.922C252.977 208.922 253.277 208.965 253.59 207.861C253.903 206.756 254.502 204.447 254.502 204.447L255.323 204.031C255.323 204.031 255.78 202.854 255.441 202.338C255.102 201.822 254.176 201.693 254.176 201.693Z" fill="#474642"/>
<path d="M255.323 204.031L254.58 208.931H254.372L254.502 204.447L255.323 204.031Z" fill="#3E4444"/>
<path d="M252.09 199.469L251.946 201.951L251.034 207.057L250.069 207.746H252.456L254.176 201.693L253.889 199.469H252.09Z" fill="#F4BB82"/>
<path d="M273.341 171.029C273.341 171.029 275.314 176.013 274.215 177.992C273.117 179.971 271.546 180.913 265.761 180.913C259.977 180.913 252.041 180.913 252.041 180.913C252.041 180.913 253.132 181.53 253.89 188.86C254.378 193.578 254.369 201.236 254.369 201.236H251.866C251.866 201.236 246.779 180.756 246.893 178.118C247.007 175.479 265.477 172.253 265.477 172.253L273.074 171.029H273.341Z" fill="#3E4444"/>
<path d="M260.705 201.693L258.984 207.746H256.221C256.221 207.746 255.934 207.861 255.934 208.449C255.934 209.037 256.338 208.922 257.576 208.922C258.814 208.922 259.505 208.922 259.505 208.922C259.505 208.922 259.805 208.965 260.118 207.861C260.431 206.756 261.03 204.447 261.03 204.447L261.852 204.031C261.852 204.031 262.308 202.854 261.969 202.338C261.63 201.822 260.705 201.693 260.705 201.693Z" fill="#474642"/>
<path d="M261.852 204.031L261.109 208.931H260.9L261.031 204.447L261.852 204.031Z" fill="#3E4444"/>
<path d="M258.618 199.469L258.475 201.951L257.562 207.057L256.598 207.746H258.984L260.705 201.693L260.417 199.469H258.618Z" fill="#F4BB82"/>
<path d="M279.87 171.029C279.87 171.029 281.842 176.013 280.744 177.992C279.646 179.971 278.074 180.913 272.29 180.913C266.505 180.913 258.57 180.913 258.57 180.913C258.57 180.913 259.661 181.53 260.418 188.86C260.906 193.578 260.898 201.236 260.898 201.236H258.394C258.394 201.236 253.308 180.756 253.422 178.118C253.535 175.479 272.006 172.253 272.006 172.253L279.603 171.029H279.87Z" fill="#565959"/>
<path d="M267.412 147.406C267.412 147.406 270.088 146.403 273.956 146.403C277.824 146.403 280.466 147.406 280.466 147.406C280.466 147.406 280.843 155.83 280.659 156.346C280.475 156.861 277.622 167.306 277.622 167.306H269.546L267.412 159.297C267.412 159.297 264.937 158.036 265.016 155.973C265.095 153.91 267.412 151.675 267.412 151.675L267.412 147.406Z" fill="white"/>
<path d="M265.446 156.474C265.446 156.474 269.686 158.323 270.03 158.323C270.374 158.323 272.696 156.603 273.584 156.474C274.471 156.345 277.48 158.638 277.366 158.839C277.251 159.039 270.288 158.781 269.858 158.839C269.428 158.896 267.412 159.297 267.412 159.297C267.412 159.297 266.172 158.391 265.678 157.689C265.184 156.986 265.446 156.474 265.446 156.474Z" fill="#F4F4F4"/>
<path d="M277.763 166.79L279.744 171.029C279.744 171.029 277.638 172.42 273.125 172.335C268.612 172.249 267.248 171.967 267.248 171.967L269.341 166.539L277.763 166.79Z" fill="#E7F2F2"/>
<path d="M258.904 164.513C258.904 164.513 261.945 162.423 262.991 162.493C264.037 162.563 273.558 164.858 276.576 162.491C279.594 160.124 276.812 148.356 280.466 147.406C284.119 146.455 284.605 155.45 282.933 160.889C281.261 166.328 274.685 167.169 270.797 166.539C266.909 165.91 262.643 164.306 262.643 164.306L258.904 164.513Z" fill="#F4BB82"/>
<path d="M224.094 173.249H220.539V208.651H224.094V173.249Z" fill="#43405A"/>
<path d="M306.051 166.264H215.373V171.311H306.051V166.264Z" fill="#4D4C68"/>
<path d="M303.165 171.311H218.777V173.249H303.165V171.311Z" fill="#43405A"/>
<path d="M298.664 173.249H295.108V208.651H298.664V173.249Z" fill="#43405A"/>
<path d="M271.752 142.989L271.303 147.199C271.303 147.199 271.65 148.613 273.369 148.644C275.089 148.675 275.964 147.293 275.964 147.293L275.775 141.826L271.752 142.989Z" fill="#F4BB82"/>
<path d="M271.419 146.109C271.419 146.109 272.676 146.043 273.987 145.152C275.298 144.261 275.821 143.15 275.821 143.15L275.819 142.517L271.576 144.638L271.419 146.109Z" fill="#E58E63"/>
<path d="M266.429 135.318V135.822C266.429 137.802 266.765 139.767 267.433 141.63C267.993 143.192 269.405 144.802 270.118 144.858C273.2 145.101 275.5 143.585 276.474 142.517C277.448 141.449 278.158 139.894 278.158 139.894C278.158 139.894 279.541 140.303 280.326 138.26C281.112 136.218 280.19 135.779 280.19 135.779C280.19 135.779 279.583 135.464 278.891 135.737C278.2 136.009 278.054 136.218 278.054 136.218C278.054 136.218 279.268 131.987 278.598 129.851C277.928 127.715 273.456 125.882 269.644 127.893C265.833 129.903 266.429 135.318 266.429 135.318Z" fill="#F4BB82"/>
<path d="M280.075 137.601C280.075 137.601 280.253 136.669 279.991 136.47C279.729 136.271 278.724 136.575 278.483 137.706C278.242 138.837 278.672 138.847 278.933 138.816C279.195 138.784 279.446 138.386 279.342 137.884C279.237 137.381 279.017 137.433 279.017 137.433C279.017 137.433 279.354 136.634 279.74 136.721C280.125 136.808 280.001 137.618 280.001 137.618L280.075 137.601Z" fill="#E58E63"/>
<path d="M275.633 130.411C275.633 130.411 274.916 131.995 275.633 133.758C276.35 135.521 278.054 136.219 278.054 136.219C278.054 136.219 278.868 135.704 279.376 135.689C279.884 135.674 280.06 135.725 280.06 135.725C280.06 135.725 280.474 130.949 280.474 129.402C280.474 127.856 279.499 126.746 279.499 126.746C279.499 126.746 279.096 125.805 278.642 125.637C278.188 125.469 277.894 125.452 277.894 125.452C277.894 125.452 278.692 125.855 278.81 126.107C278.928 126.36 278.928 126.578 278.928 126.578C278.928 126.578 275.969 124.931 270.994 126.141C266.018 127.351 265.413 129.906 265.144 131.654C264.875 133.403 265.615 133.758 265.615 133.758C265.615 133.758 269.425 133.773 272.204 132.607C274.983 131.442 275.633 130.411 275.633 130.411Z" fill="#8E5930"/>
<path d="M274.615 126.183C274.615 126.183 273.861 123.169 277.177 122.264C280.493 121.36 283.708 123.169 283.557 127.238C283.407 131.308 279.488 130.554 279.488 130.554L274.615 126.183Z" fill="#8E5930"/>
<path d="M276.169 146.079C276.169 146.079 273.45 147.561 272.669 147.425C271.888 147.289 271.276 146.265 271.276 146.265L270.257 146.708L270.01 150.867L272.398 148.686L273.09 151.419C273.09 151.419 275.26 150.32 276.169 149.189C277.078 148.058 277.582 146.698 277.582 146.698L276.169 146.079Z" fill="#AFE9ED"/>
<path d="M266.909 162.998C266.909 162.998 271.702 163.927 274.231 163.128C276.76 162.328 277.514 161.236 277.887 158.092C278.261 154.948 278.007 152.203 278.517 150.135C279.026 148.067 279.521 147.048 281.154 147.243C282.788 147.438 283.752 149.471 284.012 153.167C284.271 156.864 283.432 161.733 281.484 163.914C279.536 166.095 276.79 166.264 276.79 166.264H269.263L265.929 165.675L266.909 162.998Z" fill="#AFE9ED"/>
<path d="M265.761 180.913C265.761 180.913 266.289 175.625 262.033 175.206C257.777 174.786 253.42 174.932 253.42 174.932L260.391 173.249H280.71C280.71 173.249 281.714 176.205 280.915 178.103C280.116 180.001 278.177 181.02 273.402 181.06C268.626 181.1 265.761 180.913 265.761 180.913Z" fill="#F4F4F4"/>
<path d="M281.276 114.747C279.07 114.747 277.063 112.641 275.625 108.817C274.276 105.232 273.534 100.48 273.534 95.4384C273.534 90.3968 274.276 85.6456 275.625 82.0597C277.063 78.2358 279.07 76.1299 281.276 76.1299C283.483 76.1299 285.49 78.2358 286.928 82.0597C288.276 85.6453 289.018 90.3965 289.018 95.4384C289.018 100.48 288.276 105.232 286.928 108.817C285.49 112.641 283.483 114.747 281.276 114.747ZM281.276 77.6749C279.781 77.6749 278.249 79.4713 277.071 82.6034C275.786 86.0197 275.079 90.578 275.079 95.4384C275.079 100.299 275.786 104.857 277.071 108.274C278.249 111.406 279.781 113.202 281.276 113.202C282.771 113.202 284.304 111.406 285.482 108.274C286.766 104.857 287.473 100.299 287.473 95.4384C287.473 90.578 286.766 86.0197 285.482 82.6034C284.304 79.4713 282.771 77.6749 281.276 77.6749Z" fill="#AFE9ED"/>
<path d="M269.854 106.674C266.896 106.674 264.897 105.823 264.075 104.211C263.073 102.245 264.037 99.5005 266.79 96.4821C269.372 93.6519 273.267 90.832 277.758 88.5416C283.165 85.7841 288.611 84.2026 292.699 84.2026C295.657 84.2026 297.655 85.0546 298.477 86.6665C299.48 88.6325 298.516 91.3771 295.762 94.3952C293.181 97.2252 289.285 100.045 284.794 102.336C279.387 105.093 273.942 106.674 269.854 106.674ZM292.699 85.7477C288.904 85.7477 283.581 87.3067 278.461 89.918C274.131 92.1262 270.392 94.8272 267.932 97.5235C265.677 99.9955 264.772 102.177 265.451 103.509C265.985 104.554 267.548 105.13 269.854 105.13C273.649 105.13 278.972 103.571 284.092 100.96C288.422 98.7518 292.161 96.0505 294.621 93.3543C296.876 90.8821 297.78 88.7004 297.101 87.3687C296.568 86.3234 295.004 85.7477 292.699 85.7477Z" fill="#AFE9ED"/>
<path d="M292.699 106.674C292.699 106.674 292.698 106.674 292.698 106.674C288.611 106.674 283.165 105.093 277.758 102.336C273.267 100.045 269.372 97.2252 266.79 94.3952C264.037 91.3771 263.073 88.6322 264.075 86.6665C264.897 85.0546 266.895 84.2026 269.854 84.2026C273.942 84.2026 279.387 85.7841 284.794 88.5416C289.285 90.832 293.18 93.6519 295.762 96.4821C298.516 99.5003 299.48 102.245 298.477 104.211C297.655 105.822 295.657 106.674 292.699 106.674ZM269.854 85.7476C267.548 85.7476 265.985 86.3232 265.451 87.3684C264.772 88.7002 265.676 90.8818 267.931 93.354C270.391 96.0502 274.13 98.7514 278.461 100.96C283.581 103.571 288.903 105.129 292.698 105.129C295.005 105.129 296.568 104.554 297.101 103.508C297.78 102.177 296.876 99.9953 294.621 97.5232C292.161 94.8268 288.422 92.1259 284.092 89.9178C278.972 87.3066 273.649 85.7476 269.854 85.7476Z" fill="#AFE9ED"/>
<path d="M284.61 95.4385C284.61 97.2798 283.117 98.772 281.277 98.772C279.435 98.772 277.943 97.2798 277.943 95.4385C277.943 93.598 279.435 92.1052 281.277 92.1052C283.117 92.1052 284.61 93.598 284.61 95.4385Z" fill="#AFE9ED"/>
<path d="M71.2562 185.323C71.1062 188.2 68.5447 190.488 65.4858 190.488C62.4269 190.488 59.8654 188.2 59.7153 185.323V139.024H71.2562V185.323Z" fill="#61D0D8"/>
<path d="M70.4489 184.999C70.3184 187.501 68.1461 189.492 65.4855 189.492C62.8251 189.492 60.6526 187.501 60.5221 184.999H60.4663V137.551H70.5047V184.999H70.4489Z" fill="#E8EDF9"/>
<path d="M69.8358 184.479C69.7215 186.672 67.8175 188.416 65.4856 188.416C63.1541 188.416 61.2499 186.672 61.1356 184.479H61.0867V151.101H69.8848V184.479H69.8358Z" fill="#61D0D8"/>
<path d="M69.8848 150.985C69.8848 151.434 67.9152 151.798 65.4857 151.798C63.056 151.798 61.0867 151.434 61.0867 150.985C61.0867 150.535 63.0562 150.171 65.4857 150.171C67.9152 150.171 69.8848 150.535 69.8848 150.985Z" fill="#68E0E8"/>
<path opacity="0.15" d="M67.126 139.024V180.32C66.976 183.197 64.4145 185.485 61.3556 185.485C60.7874 185.485 60.2369 185.406 59.7153 185.259V185.323C59.8654 188.2 62.4269 190.488 65.4858 190.488C68.5447 190.488 71.1062 188.2 71.2562 185.323V139.024H67.126Z" fill="white"/>
<path d="M72.7694 137.658C72.7694 138.288 69.5084 138.799 65.4852 138.799C61.463 138.799 58.2017 138.288 58.2017 137.658C58.2017 137.027 61.4628 136.516 65.4852 136.516C69.5085 136.516 72.7694 137.027 72.7694 137.658Z" fill="#61D0D8"/>
<path d="M72.7787 137.422H58.1926C58.1926 137.422 58.1926 139.396 58.1926 139.48C58.1926 140.113 61.4578 140.626 65.4851 140.626C69.5134 140.626 72.7785 140.113 72.7785 139.48C72.7787 139.396 72.7787 137.422 72.7787 137.422Z" fill="#61D0D8"/>
<path d="M72.3834 137.374H58.5874C58.5874 137.374 58.5874 139.241 58.5874 139.321C58.5874 139.919 61.676 140.404 65.4854 140.404C69.2954 140.404 72.3836 139.919 72.3836 139.321C72.3834 139.241 72.3834 137.374 72.3834 137.374Z" fill="#61D0D8"/>
<path d="M69.8053 137.374C70.7129 139.325 67.1016 139.781 63.2916 139.781C61.6562 139.781 59.2504 139.541 58.5874 139.135C58.5874 139.239 58.5874 139.307 58.5874 139.321C58.5874 139.919 61.6758 140.404 65.4854 140.404C69.2954 140.404 72.3836 139.919 72.3836 139.321C72.3836 139.241 72.3836 137.374 72.3836 137.374H69.8053V137.374Z" fill="#61D0D8"/>
<path d="M72.1484 138.087C72.1484 138.414 69.1654 138.678 65.4854 138.678C61.8056 138.678 58.8225 138.414 58.8225 138.087C58.8225 137.761 61.8056 137.142 65.4854 137.142C69.1654 137.142 72.1484 137.761 72.1484 138.087Z" fill="#E8EDF9"/>
<path d="M52.2708 185.424C52.1208 188.301 49.5593 190.59 46.5004 190.59C43.4415 190.59 40.88 188.301 40.73 185.424V139.125H52.2708V185.424Z" fill="#61D0D8"/>
<path d="M51.4639 185.1C51.3334 187.602 49.1613 189.593 46.5006 189.593C43.8403 189.593 41.6677 187.602 41.5373 185.1H41.4814V137.652H51.5198V185.1H51.4639Z" fill="#E8EDF9"/>
<path d="M50.8504 184.58C50.7361 186.773 48.8322 188.517 46.5003 188.517C44.1687 188.517 42.2645 186.773 42.1502 184.58H42.1013V151.202H50.8995V184.58H50.8504Z" fill="#DB4916"/>
<path d="M50.9 151.086C50.9 151.535 48.9303 151.899 46.5009 151.899C44.0712 151.899 42.1018 151.535 42.1018 151.086C42.1018 150.637 44.0712 150.272 46.5009 150.272C48.9303 150.272 50.9 150.637 50.9 151.086Z" fill="#ED4F18"/>
<path opacity="0.15" d="M48.1407 139.125V180.421C47.9906 183.298 45.4291 185.586 42.3702 185.586C41.8021 185.586 41.2515 185.507 40.73 185.36V185.424C40.88 188.301 43.4415 190.59 46.5004 190.59C49.5593 190.59 52.1208 188.301 52.2708 185.424V139.125H48.1407Z" fill="white"/>
<path d="M53.7841 137.759C53.7841 138.389 50.5231 138.9 46.4999 138.9C42.4776 138.9 39.2163 138.389 39.2163 137.759C39.2163 137.129 42.4776 136.617 46.4999 136.617C50.5231 136.618 53.7841 137.129 53.7841 137.759Z" fill="#61D0D8"/>
<path d="M53.7934 137.524H39.2075C39.2075 137.524 39.2075 139.497 39.2075 139.582C39.2075 140.214 42.4727 140.727 46.5 140.727C50.5283 140.727 53.7934 140.214 53.7934 139.582C53.7934 139.497 53.7934 137.524 53.7934 137.524Z" fill="#61D0D8"/>
<path d="M53.3984 137.475H39.6023C39.6023 137.475 39.6023 139.342 39.6023 139.422C39.6023 140.02 42.6909 140.505 46.5002 140.505C50.3102 140.505 53.3984 140.02 53.3984 139.422C53.3984 139.342 53.3984 137.475 53.3984 137.475Z" fill="#61D0D8"/>
<path d="M50.8204 137.475C51.7281 139.426 48.1167 139.882 44.3067 139.882C42.6713 139.882 40.2656 139.642 39.6025 139.236C39.6025 139.339 39.6025 139.408 39.6025 139.422C39.6025 140.02 42.6909 140.505 46.5005 140.505C50.3105 140.505 53.3987 140.02 53.3987 139.422C53.3987 139.342 53.3987 137.475 53.3987 137.475H50.8204Z" fill="#61D0D8"/>
<path d="M53.1636 138.188C53.1636 138.515 50.1805 138.779 46.5005 138.779C42.8207 138.779 39.8376 138.515 39.8376 138.188C39.8376 137.862 42.8207 137.243 46.5005 137.243C50.1805 137.243 53.1636 137.862 53.1636 138.188Z" fill="#E8EDF9"/>
<path d="M22.8218 167.571V209.532H84.7652V167.571H71.256C71.256 167.571 68.7067 168.766 65.6033 168.797C62.3849 168.829 59.7151 167.571 59.7151 167.571H52.2707C52.2707 167.571 49.7649 168.916 46.5006 168.815C43.5708 168.723 40.7301 167.571 40.7301 167.571H22.8218ZM81.6629 203.307H25.924V170.641H40.7301C40.7301 170.641 43.5572 171.884 46.5006 171.884C50.0796 171.884 52.271 170.641 52.271 170.641H59.7151C59.7151 170.641 62.83 171.866 65.6033 171.866C68.8406 171.866 71.256 170.641 71.256 170.641H81.6629V203.307Z" fill="#43405A"/>
<path d="M22.9399 167.571H40.7302C40.7302 167.571 42.6916 168.722 46.6187 168.815C49.3857 168.88 52.271 167.571 52.271 167.571H59.7154C59.7154 167.571 62.195 168.722 65.6036 168.797C68.0814 168.851 71.2562 167.571 71.2562 167.571H84.6474V168.343L71.2562 168.429C71.2562 168.429 68.5516 169.489 65.6036 169.506C62.6671 169.523 59.7154 168.315 59.7154 168.315L52.2712 168.368C52.2712 168.368 49.151 169.519 46.7366 169.624C43.6294 169.758 40.7305 168.368 40.7305 168.368H22.9399V167.571Z" fill="#4D4C68"/>
<path d="M99.5965 123.399C99.5965 123.399 86.5414 130.643 85.7211 147.646C84.425 174.493 107.061 175.636 107.061 175.636L107.078 185.837C107.078 185.837 83.7281 180.76 78.4403 163.242C68.7306 131.075 93.9905 114.756 93.9905 114.756L99.5965 123.399Z" fill="#5D5470"/>
<path d="M96.2127 75.8586L78.0669 87.9268L123.26 155.879L141.405 143.811L96.2127 75.8586Z" fill="#B7C1E2"/>
<path d="M153.427 171.369L101.857 171.457L101.866 176.557L153.436 176.469L153.427 171.369Z" fill="#B7C1E2"/>
<path d="M82.8748 66.5896L73.8018 72.6238L118.995 140.576L128.068 134.542L82.8748 66.5896Z" fill="#B7C1E2"/>
<path d="M131.335 176.507L104.983 176.552L105.035 206.926L131.386 206.881L131.335 176.507Z" fill="#D3D9ED"/>
<path d="M79.517 90.2312C79.517 90.2312 78.3851 88.6963 87.4682 83.182C92.9283 79.8673 97.5931 78.3611 97.5931 78.3611L100.995 83.4753L82.0714 94.3724L79.517 90.2312Z" fill="#43405A"/>
<path d="M153.435 175.462L101.865 175.55L101.868 177.339L153.438 177.252L153.435 175.462Z" fill="#43405A"/>
<path d="M116.89 153.421L141.599 136.987L103.596 79.8486C103.596 79.8486 99.6592 80.1239 90.4295 86.0589C80.3818 92.5199 78.8862 96.2824 78.8862 96.2824L116.89 153.421Z" fill="#D3D9ED"/>
<path opacity="0.3" d="M83.5557 91.0735L97.4959 111.586C97.4959 111.586 105.328 126.095 111.555 121.812C120.657 115.55 92.6945 85.2097 92.6945 85.2097L83.5557 91.0735Z" fill="white"/>
<path opacity="0.4" d="M103.113 79.8684L99.0186 82.8927C99.0186 82.8927 118.04 103.553 118.067 119.01C118.089 131.904 106.43 137.641 106.43 137.641L116.407 153.441L141.116 137.007L103.113 79.8684Z" fill="#7C7091"/>
<path d="M116.89 153.421L141.599 136.987L133.124 124.247L108.417 140.681L116.89 153.421Z" fill="#43405A"/>
<path d="M97.5273 124.309C97.5273 124.309 84.4722 131.552 83.6518 148.555C82.3558 175.403 104.992 176.546 104.992 176.546L105.009 186.747C105.009 186.747 81.6592 181.669 76.3712 164.152C66.6615 131.985 91.9214 115.666 91.9214 115.666L97.5273 124.309Z" fill="#D3D9ED"/>
<path d="M85.7649 119.39C85.7742 124.789 90.1592 129.158 95.5579 129.149C100.956 129.14 105.325 124.755 105.316 119.356C105.306 113.958 100.922 109.589 95.5237 109.598C90.1251 109.607 85.7554 113.992 85.7649 119.39Z" fill="#43405A"/>
<path d="M89.3064 119.384C89.3124 122.827 92.108 125.613 95.5516 125.607C98.994 125.601 101.781 122.805 101.775 119.363C101.769 115.92 98.9722 113.133 95.5299 113.139C92.0863 113.146 89.3004 115.941 89.3064 119.384Z" fill="#61D0D8"/>
<path d="M98.9458 180.119C98.9517 183.462 101.666 186.166 105.008 186.16C108.35 186.154 111.055 183.441 111.049 180.098C111.043 176.756 108.329 174.051 104.987 174.057C101.645 174.062 98.9399 176.776 98.9458 180.119Z" fill="#43405A"/>
<path d="M101.138 180.115C101.142 182.246 102.873 183.972 105.005 183.968C107.136 183.964 108.861 182.233 108.857 180.101C108.853 177.97 107.122 176.245 104.991 176.249C102.859 176.253 101.134 177.984 101.138 180.115Z" fill="#61D0D8"/>
<path d="M73.7944 72.6264L69.0264 71.5096L83.1248 62.1692L82.8665 66.5922L73.7944 72.6264Z" fill="#43405A"/>
<path opacity="0.5" d="M75.5085 71.7032L84.3641 83.5161L86.4237 81.9626L78.905 69.3442L75.5085 71.7032Z" fill="white"/>
<path opacity="0.5" d="M126.982 176.507C126.982 176.507 129.335 191.365 123.224 197.326C118.661 201.778 105.033 200.335 105.033 200.335L105.041 204.847L131.392 204.801L131.343 176.5L126.982 176.507Z" fill="#7C7091"/>
<path d="M153.483 204.293L78.6787 204.421L78.6874 209.521L153.492 209.394L153.483 204.293Z" fill="#43405A"/>
<path d="M81.3955 131.767C81.3979 133.124 82.4996 134.222 83.8561 134.219C85.2126 134.217 86.3102 133.115 86.308 131.759C86.3056 130.402 85.204 129.304 83.8476 129.307C82.491 129.309 81.3932 130.411 81.3955 131.767Z" fill="#43405A"/>
<path d="M82.2859 131.766C82.2874 132.631 82.9898 133.331 83.8551 133.329C84.72 133.328 85.4202 132.625 85.4186 131.76C85.4171 130.895 84.7145 130.195 83.8495 130.197C82.9842 130.198 82.2843 130.901 82.2859 131.766Z" fill="#61D0D8"/>
<path d="M179.614 112.31V121.304C179.614 121.304 180.063 126.898 176.941 128.017C173.819 129.135 172.316 128.795 172.316 128.795L171.439 114.294L177.994 109.874L179.614 112.31Z" fill="#CE6219"/>
<path d="M177.503 127.166C177.503 127.166 178.733 127.199 180.184 130.913C181.634 134.627 182.582 141.326 184.776 142.215C186.97 143.105 189.756 142.571 189.756 142.571L190.23 145.326C190.23 145.326 184.921 146.364 181.677 144.408C178.433 142.452 177.503 138.983 177.503 138.983L177.503 127.166Z" fill="#AFE9ED"/>
<path d="M165.806 106.051C165.806 106.051 163.848 106.749 163.848 113.613C163.848 120.477 163.848 129.232 163.848 129.232L171.439 128.211C171.439 128.211 171.968 116.829 171.726 116.489C171.484 116.148 166.39 107.782 166.39 107.782L165.806 106.051Z" fill="#CE6219"/>
<path d="M167.47 118.251V127.49L173.386 125.915L171.172 118.923L167.47 118.251Z" fill="#CE6219"/>
<path d="M177.503 127.166L175.356 126.361L167.224 126.582L163.848 128.056C163.848 128.056 166.866 145.685 166.391 146.612C165.915 147.539 165.064 151.164 165.064 151.164H179.532L178.208 146.359L180.135 136.683C180.331 135.698 180.252 134.678 179.907 133.734L177.503 127.166Z" fill="white"/>
<path d="M173.867 121.455L174.34 125.579C174.34 125.579 173.975 126.964 172.168 126.995C170.361 127.026 169.441 125.672 169.441 125.672L169.64 120.317L173.867 121.455Z" fill="#F4BB82"/>
<path d="M169.505 123.946C169.505 123.946 170.867 124.605 172.392 124.194C173.917 123.784 174.075 123.269 174.075 123.269V122.983L169.64 120.932L169.505 123.946Z" fill="#E58E63"/>
<path d="M175.278 202.518L177.66 209.02H181.484C181.484 209.02 181.881 209.144 181.881 209.775C181.881 210.407 181.322 210.284 179.608 210.284C177.894 210.284 176.938 210.284 176.938 210.284C176.938 210.284 176.523 210.33 176.09 209.144C175.657 207.957 174.827 205.477 174.827 205.477L173.691 205.03C173.691 205.03 173.059 203.766 173.528 203.212C173.998 202.657 175.278 202.518 175.278 202.518Z" fill="#474642"/>
<path d="M173.691 205.03L174.719 210.293H175.008L174.827 205.477L173.691 205.03Z" fill="#474642"/>
<path d="M178.437 202.18L178.365 202.796L179.628 208.281L180.963 209.02H177.66L175.278 202.518L175.677 200.13L178.437 202.18Z" fill="#F4BB82"/>
<path d="M178.825 113.821V114.309C178.825 116.225 178.5 118.128 177.853 119.932C177.311 121.444 175.945 123.003 175.254 123.057C172.27 123.293 170.043 121.825 169.101 120.79C168.158 119.756 167.47 118.251 167.47 118.251C167.47 118.251 166.131 118.647 165.371 116.67C164.61 114.693 165.503 114.267 165.503 114.267C165.503 114.267 166.091 113.963 166.76 114.226C167.429 114.49 167.571 114.693 167.571 114.693C167.571 114.693 166.395 110.597 167.044 108.528C167.693 106.46 172.022 104.686 175.712 106.632C179.403 108.579 178.825 113.821 178.825 113.821Z" fill="#F4BB82"/>
<path d="M165.614 116.031C165.614 116.031 165.442 115.129 165.696 114.936C165.949 114.743 166.922 115.037 167.155 116.132C167.389 117.227 166.973 117.237 166.72 117.207C166.466 117.177 166.223 116.791 166.324 116.305C166.425 115.818 166.638 115.869 166.638 115.869C166.638 115.869 166.312 115.095 165.939 115.179C165.566 115.263 165.685 116.048 165.685 116.048L165.614 116.031Z" fill="#E58E63"/>
<path d="M169.914 109.069C169.914 109.069 170.609 110.603 169.914 112.31C169.22 114.017 167.571 114.693 167.571 114.693C167.571 114.693 166.782 114.194 166.291 114.179C165.799 114.165 165.629 114.215 165.629 114.215C165.629 114.215 165.228 109.59 165.228 108.093C165.228 106.596 166.171 105.522 166.171 105.522C166.171 105.522 166.562 104.611 167.001 104.448C167.441 104.285 167.725 104.269 167.725 104.269C167.725 104.269 166.953 104.659 166.839 104.903C166.725 105.148 166.725 105.359 166.725 105.359C166.725 105.359 169.589 103.764 174.406 104.936C179.223 106.108 179.809 108.581 180.069 110.274C180.33 111.966 179.614 112.31 179.614 112.31C179.614 112.31 175.925 112.324 173.234 111.196C170.544 110.068 169.914 109.069 169.914 109.069Z" fill="#CE6219"/>
<path d="M174.34 125.579C174.34 125.579 173.565 126.835 172.585 126.804C171.605 126.772 169.441 125.371 169.441 125.371L167.224 126.583L172.995 130.913L173.386 127.49L175.682 130.534C175.682 130.534 175.84 126.519 175.682 126.235C175.524 125.95 174.34 125.579 174.34 125.579Z" fill="#AFE9ED"/>
<path d="M165.064 151.164C165.064 151.164 163.888 154.957 163.848 161.447C163.808 167.937 163.256 172.995 163.256 172.995H181.881C181.881 172.995 181.037 160.967 181.037 156.6C181.037 152.849 178.917 148.931 178.917 148.931L165.064 151.164Z" fill="white"/>
<path d="M178.437 172.995V202.18H175.318C175.318 202.18 173.464 190.766 173.464 188.671C173.464 186.576 174.182 181.758 174.182 181.758L172.958 172.995L178.437 172.995Z" fill="#565959"/>
<path d="M178.437 173.303L173.296 175.133L172.958 172.995H178.437V173.303Z" fill="#3E4444"/>
<path d="M168.405 202.518L170.786 209.02H174.611C174.611 209.02 175.008 209.144 175.008 209.775C175.008 210.407 174.449 210.284 172.735 210.284C171.021 210.284 170.065 210.284 170.065 210.284C170.065 210.284 169.65 210.33 169.217 209.144C168.784 207.957 167.954 205.477 167.954 205.477L166.817 205.03C166.817 205.03 166.186 203.766 166.655 203.212C167.124 202.657 168.405 202.518 168.405 202.518Z" fill="#474642"/>
<path d="M166.817 205.03L167.845 210.293H168.134L167.954 205.477L166.817 205.03Z" fill="#474642"/>
<path d="M171.563 202.18L171.491 202.796L172.754 208.281L174.089 209.02H170.786L168.405 202.518L168.803 200.13L171.563 202.18Z" fill="#F4BB82"/>
<path d="M171.563 172.995V202.18H168.444C168.444 202.18 166.59 190.766 166.59 188.671C166.59 186.576 167.308 181.758 167.308 181.758L166.084 172.995L171.563 172.995Z" fill="#565959"/>
<path d="M171.563 173.303L166.422 175.133L166.084 172.995H171.563V173.303Z" fill="#3E4444"/>
<path d="M180.042 144.966C180.042 144.966 170.417 144.188 169.211 141.996C168.005 139.805 167.621 132.193 166.262 129.387C164.904 126.581 161.381 127.595 161.635 132.245C161.888 136.896 163.625 146.427 168.912 147.271C174.199 148.115 179.913 148.084 179.913 148.084L180.042 144.966Z" fill="#AFE9ED"/>
<path d="M194.624 176.23C194.373 179.1 191.732 181.297 188.675 181.19C185.618 181.082 183.139 178.705 183.09 175.825L184.715 129.555L196.249 129.96L194.624 176.23Z" fill="#61D0D8"/>
<path d="M193.828 175.878C193.61 178.374 191.369 180.288 188.71 180.194C186.052 180.101 183.95 178.035 183.908 175.53L183.852 175.528L185.517 128.109L195.55 128.461L193.884 175.88L193.828 175.878Z" fill="#E8EDF9"/>
<path d="M193.234 175.336C193.043 177.524 191.079 179.201 188.748 179.119C186.418 179.037 184.576 177.227 184.539 175.031L184.49 175.029L185.662 141.672L194.455 141.981L193.283 175.338L193.234 175.336Z" fill="#DB4916"/>
<path d="M194.459 141.865C194.443 142.314 192.462 142.609 190.034 142.524C187.606 142.438 185.65 142.005 185.666 141.556C185.682 141.107 187.663 140.812 190.091 140.897C192.519 140.983 194.474 141.416 194.459 141.865Z" fill="#ED4F18"/>
<path opacity="0.15" d="M192.121 129.815L190.672 171.085C190.421 173.955 187.78 176.152 184.723 176.045C184.156 176.025 183.608 175.926 183.092 175.761L183.09 175.825C183.139 178.705 185.618 181.083 188.675 181.19C191.732 181.297 194.373 179.1 194.624 176.23L196.249 129.96L192.121 129.815Z" fill="white"/>
<path d="M197.809 128.647C197.787 129.277 194.51 129.674 190.489 129.532C186.47 129.391 183.228 128.766 183.25 128.136C183.272 127.506 186.55 127.11 190.569 127.251C194.59 127.392 197.831 128.017 197.809 128.647Z" fill="#61D0D8"/>
<path d="M197.827 128.413L183.25 127.901C183.25 127.901 183.181 129.873 183.178 129.958C183.155 130.589 186.401 131.217 190.425 131.358C194.451 131.499 197.732 131.101 197.755 130.469C197.758 130.385 197.827 128.413 197.827 128.413Z" fill="#61D0D8"/>
<path d="M197.434 128.35L183.646 127.866C183.646 127.866 183.581 129.732 183.578 129.811C183.557 130.409 186.626 131.002 190.433 131.136C194.241 131.27 197.344 130.894 197.365 130.296C197.368 130.216 197.434 128.35 197.434 128.35Z" fill="#61D0D8"/>
<path d="M194.857 128.26C195.696 130.241 192.07 130.57 188.263 130.437C186.629 130.379 184.233 130.055 183.584 129.626C183.581 129.729 183.578 129.798 183.578 129.812C183.557 130.41 186.626 131.003 190.433 131.136C194.241 131.27 197.344 130.894 197.365 130.296C197.368 130.216 197.434 128.351 197.434 128.351L194.857 128.26Z" fill="#61D0D8"/>
<path d="M197.173 129.055C197.162 129.381 194.171 129.541 190.494 129.411C186.816 129.282 183.844 128.913 183.856 128.587C183.867 128.261 186.87 127.747 190.548 127.877C194.225 128.006 197.185 128.729 197.173 129.055Z" fill="#E8EDF9"/>
<path d="M180.026 145.356C180.026 145.356 180.739 144.716 182.008 144.769C183.278 144.821 185.516 144.914 185.516 144.914C185.516 144.914 186.615 145.027 186.524 145.625C186.432 146.224 185.295 146.21 185.295 146.21C185.295 146.21 185.394 147.051 185.118 147.24C184.843 147.429 184.241 147.405 184.241 147.405C184.241 147.405 184.105 148.26 183.635 148.295C183.165 148.33 182.515 148.672 181.717 148.571C180.918 148.471 179.913 148.084 179.913 148.084L180.026 145.356Z" fill="#F4BB82"/>
<path d="M173.643 127.831C173.643 127.831 176.216 134.061 176.465 135.737C176.713 137.413 175.538 146.069 175.538 146.069L175.697 172.995H175.071V146.128C175.071 146.128 176.358 137.561 176.091 135.901C175.824 134.241 173.343 127.859 173.343 127.859L173.385 127.49L173.643 127.831Z" fill="#AFE9ED"/>
<path d="M196.131 139.176C196.131 139.176 196.905 139.697 197.091 141.34C197.277 142.984 196.341 143.631 196.341 143.631C196.341 143.631 195.256 143.789 194.922 143.168C194.589 142.547 195.046 142.08 195.046 142.08C195.046 142.08 194.328 141.97 194.234 141.299C194.141 140.629 194.91 140.425 194.91 140.425C194.91 140.425 194.218 140.165 194.401 139.394C194.585 138.623 196.131 139.176 196.131 139.176Z" fill="#F4BB82"/>
</svg>
