<svg width="45" height="45" viewBox="0 0 45 45" fill="none" xmlns="http://www.w3.org/2000/svg">
<path d="M7.39274 36.7943C6.38441 36.7943 5.52152 36.4355 4.80407 35.7181C4.08663 35.0007 3.7273 34.1372 3.72607 33.1276V11.1276C3.72607 10.1193 4.08541 9.25638 4.80407 8.53894C5.52274 7.82149 6.38563 7.46216 7.39274 7.46094H36.7261C37.7344 7.46094 38.5979 7.82027 39.3166 8.53894C40.0352 9.2576 40.394 10.1205 40.3927 11.1276V33.1276C40.3927 34.1359 40.034 34.9994 39.3166 35.7181C38.5991 36.4368 37.7356 36.7955 36.7261 36.7943H7.39274ZM22.0594 23.9609L36.7261 14.7943V11.1276L22.0594 20.2943L7.39274 11.1276V14.7943L22.0594 23.9609Z" fill="url(#paint0_linear_1_8089)"/>
<defs>
<linearGradient id="paint0_linear_1_8089" x1="39.0736" y1="36.7943" x2="26.8083" y2="0.562555" gradientUnits="userSpaceOnUse">
<stop stop-color="#0669C0"/>
<stop offset="1" stop-color="#19BDF9"/>
</linearGradient>
</defs>
</svg>
