<svg width="67" height="67" viewBox="0 0 67 67" fill="none" xmlns="http://www.w3.org/2000/svg">
<g clip-path="url(#clip0_1_8100)">
<path d="M7.01096 7.64796H30.322C31.1048 7.64796 31.7411 7.01307 31.7411 6.23448V1.81605C31.7411 1.03474 31.1048 0.398438 30.322 0.398438H7.01096C6.22965 0.398438 5.59335 1.03474 5.59335 1.81605V6.23448C5.59335 7.01307 6.22965 7.64796 7.01096 7.64796ZM28.6294 2.27721H30.5423V5.76918H28.6294V2.27721ZM24.2617 2.27721H26.1746V5.76918H24.2617V2.27721ZM19.8953 2.27721H21.8068V5.76918H19.8951L19.8953 2.27721ZM15.5275 2.27721H17.4392V5.76918H15.5275V2.27721ZM11.1598 2.27721H13.0713V5.76918H11.1598V2.27721ZM6.78795 2.27721H8.70088V5.76918H6.78795V2.27721ZM36.0144 42.2725C36.7368 41.0232 37.9081 40.127 39.312 39.752C39.7841 39.6247 40.2616 39.5631 40.7351 39.5631C41.2044 39.5631 41.6697 39.6247 42.1226 39.7451C42.5741 39.8669 43.012 40.0476 43.4279 40.287C46.0168 41.7812 46.9063 45.1063 45.4134 47.6966L41.4465 54.5684L32.0474 49.1429L36.0144 42.2725ZM40.4901 56.2254L36.5232 63.0945C35.0249 65.6834 31.7012 66.5742 29.1137 65.0813C26.5221 63.5844 25.6299 60.2593 27.1241 57.6717L31.0909 50.7999L40.4901 56.2254ZM27.3828 66.2212H7.38041C3.66529 66.2212 0.644043 63.1999 0.644043 59.4862V58.5831H24.7104C24.0002 61.3923 25.0224 64.4272 27.3828 66.2212ZM34.3586 41.3161C34.9416 40.3089 35.7392 39.4716 36.6902 38.8517V28.1663H0.644043V56.6717H25.4931L34.3586 41.3161ZM20.771 45.4799V52.0561H16.5633V45.4799C16.5633 44.9517 16.135 44.5234 15.6068 44.5234H9.03061V40.3143H15.6068C16.135 40.3143 16.5633 39.886 16.5633 39.3592V32.7815H20.771V39.3592C20.771 39.886 21.1993 40.3143 21.7275 40.3143H28.3037V44.5233H21.7275C21.1993 44.5234 20.771 44.9517 20.771 45.4799ZM43.0066 55.6987H51.6039V66.5469H43.6689C41.4687 66.5469 39.5078 65.2196 38.6676 63.2053L43.0066 55.6904V55.6987ZM66.8745 61.1227C66.8745 64.1139 64.4403 66.5468 61.4505 66.5468H53.5155V55.6987H61.4505C64.4403 55.6987 66.8745 58.1315 66.8745 61.1227ZM36.6902 26.2547H0.644043V25.5514L8.33816 19.4499C8.56673 19.2679 8.70075 18.9929 8.70075 18.7V14.257V12.3455V9.55958H28.6293V12.3455V14.2572V18.7002C28.6293 18.993 28.7634 19.268 28.9919 19.45L36.6901 25.5515L36.6902 26.2547Z" fill="url(#paint0_linear_1_8100)"/>
</g>
<defs>
<linearGradient id="paint0_linear_1_8100" x1="64.4918" y1="66.5469" x2="31.8365" y2="-10.7199" gradientUnits="userSpaceOnUse">
<stop stop-color="#0669C0"/>
<stop offset="1" stop-color="#19BDF9"/>
</linearGradient>
<clipPath id="clip0_1_8100">
<rect width="66.2305" height="66.2305" fill="white" transform="translate(0.644287 0.355225)"/>
</clipPath>
</defs>
</svg>
