<svg width="74" height="69" viewBox="0 0 74 69" fill="none" xmlns="http://www.w3.org/2000/svg">
<path d="M55.2569 7.44819C54.9971 6.52074 54.0346 5.97562 53.1243 6.28416C47.4461 8.20867 42.3803 11.6387 38.4735 16.2241C34.1893 21.2525 31.4919 27.4434 30.7236 34.0112C29.9554 40.579 31.1509 47.2276 34.1585 53.1131C36.9011 58.4801 41.0379 62.9919 46.1179 66.1811C46.9324 66.6924 47.9945 66.3852 48.4613 65.5432L53.5141 56.4286C53.9809 55.5865 53.673 54.5309 52.8782 53.9895C50.1939 52.1608 48.0017 49.6805 46.5135 46.7683C44.7601 43.3371 44.0631 39.461 44.511 35.6319C44.9589 31.8029 46.5315 28.1936 49.0292 25.2621C51.149 22.774 53.8541 20.8694 56.8877 19.7128C57.7859 19.3704 58.329 18.4148 58.0692 17.4874L55.2569 7.44819Z" fill="url(#paint0_linear_1_8073)" fill-opacity="0.79"/>
<circle cx="6.99754" cy="6.99754" r="6.99754" transform="matrix(0.953273 -0.30211 -0.30211 -0.953273 60.3408 17.5691)" fill="url(#paint1_linear_1_8073)"/>
<ellipse cx="6.40077" cy="6.40324" rx="6.40077" ry="6.40324" transform="matrix(0.902789 -0.430532 -0.430366 -0.90244 6.04199 23.1389)" fill="url(#paint2_linear_1_8073)"/>
<path d="M18.2402 15.4297C18.6623 14.5643 19.7074 14.2013 20.5439 14.6755C25.0282 17.2179 28.767 20.9168 31.3635 25.4017C34.2517 30.3906 35.5963 36.1272 35.2266 41.8835C34.8569 47.6397 32.7895 53.1561 29.287 57.7325C26.1382 61.8466 21.9571 65.0343 17.1845 66.9792C16.2943 67.342 15.3043 66.8476 14.9964 65.9351L12.2313 57.7412C11.9233 56.8286 12.4166 55.8468 13.2904 55.4461C15.7959 54.2973 17.9923 52.5487 19.6801 50.3435C21.7221 47.6755 22.9273 44.4594 23.1428 41.1035C23.3584 37.7476 22.5745 34.4032 20.8907 31.4947C19.499 29.0908 17.5444 27.0742 15.2065 25.6128C14.3911 25.1031 14.0276 24.0659 14.4497 23.2005L18.2402 15.4297Z" fill="url(#paint3_linear_1_8073)" fill-opacity="0.8"/>
<defs>
<linearGradient id="paint0_linear_1_8073" x1="44.9115" y1="33.5851" x2="27.9594" y2="32.8434" gradientUnits="userSpaceOnUse">
<stop stop-color="#19BDF9"/>
<stop offset="1" stop-color="#0669C0"/>
</linearGradient>
<linearGradient id="paint1_linear_1_8073" x1="6.99754" y1="13.9951" x2="6.99754" y2="0" gradientUnits="userSpaceOnUse">
<stop stop-color="#2AC6FF"/>
<stop offset="1" stop-color="#00B2F3"/>
</linearGradient>
<linearGradient id="paint2_linear_1_8073" x1="6.40077" y1="12.8065" x2="6.40077" y2="0" gradientUnits="userSpaceOnUse">
<stop stop-color="#73FF47"/>
<stop offset="1" stop-color="#34DB00"/>
</linearGradient>
<linearGradient id="paint3_linear_1_8073" x1="22.4503" y1="37.3693" x2="36.5984" y2="37.8063" gradientUnits="userSpaceOnUse">
<stop stop-color="#74FF48"/>
<stop offset="1" stop-color="#2DBB00"/>
</linearGradient>
</defs>
</svg>
